<?xml version="1.0" encoding="UTF-8" standalone="no"?>
<!-- Created with Inkscape (http://www.inkscape.org/) -->
<svg xmlns:inkscape="http://www.inkscape.org/namespaces/inkscape" xmlns:rdf="http://www.w3.org/1999/02/22-rdf-syntax-ns#" xmlns="http://www.w3.org/2000/svg" xmlns:xlink="http://www.w3.org/1999/xlink" xmlns:ns1="http://sozi.baierouge.fr" xmlns:cc="http://creativecommons.org/ns#" xmlns:sodipodi="http://sodipodi.sourceforge.net/DTD/sodipodi-0.dtd" xmlns:dc="http://purl.org/dc/elements/1.1/" id="svg2" xml:space="preserve" viewBox="0 0 111.63 84.887" version="1.1" inkscape:version="0.91 r13725">
  <defs id="defs6">
    <linearGradient id="linearGradient24" y2="-57.562" gradientUnits="userSpaceOnUse" x2="36.93" gradientTransform="matrix(.000025177 -.8 -.8 .0008 .00017798 67.924)" y1="-57.562" x1="5.1548">
      <stop id="stop26" style="stop-color:#ffffff" offset="0"/>
      <stop id="stop28" style="stop-color:#c8dae3" offset="1"/>
    </linearGradient>
    <linearGradient id="linearGradient46" y2="-81.534" gradientUnits="userSpaceOnUse" x2="42.244" gradientTransform="matrix(.000064257 -.8 -.8 .0008 .00020737 67.924)" y1="-81.534" x1="29.794">
      <stop id="stop48" style="stop-color:#ffffff" offset="0"/>
      <stop id="stop50" style="stop-color:#c8dae3" offset="1"/>
    </linearGradient>
    <linearGradient id="linearGradient68" y2="-89.356" gradientUnits="userSpaceOnUse" x2="46.373" gradientTransform="matrix(.00031683 -.8 -.8 .0008 -.000053514 67.924)" y1="-89.356" x1="43.848">
      <stop id="stop70" style="stop-color:#ffffff" offset="0"/>
      <stop id="stop72" style="stop-color:#c8dae3" offset="1"/>
    </linearGradient>
    <linearGradient id="linearGradient86" y2="-98.896" gradientUnits="userSpaceOnUse" x2="55.264" gradientTransform="matrix(.00007824 -.8 -.8 .0008 -.000078926 67.924)" y1="-98.896" x1="45.039">
      <stop id="stop88" style="stop-color:#ffffff" offset="0"/>
      <stop id="stop90" style="stop-color:#c8dae3" offset="1"/>
    </linearGradient>
    <linearGradient id="linearGradient104" y2="-101.23" gradientUnits="userSpaceOnUse" x2="66.099" gradientTransform="matrix(.0001 -.8 -.8 .0008 -.00035836 67.924)" y1="-101.23" x1="58.099">
      <stop id="stop106" style="stop-color:#ffffff" offset="0"/>
      <stop id="stop108" style="stop-color:#c8dae3" offset="1"/>
    </linearGradient>
    <linearGradient id="linearGradient124" y2="-72.034" gradientUnits="userSpaceOnUse" x2="72.403" gradientTransform="matrix(.000037296 -.8 -.8 .0008 .00035696 67.924)" y1="-72.034" x1="50.953">
      <stop id="stop126" style="stop-color:#ffffff" offset="0"/>
      <stop id="stop128" style="stop-color:#c8dae3" offset="1"/>
    </linearGradient>
    <linearGradient id="linearGradient142" y2="-98.745" gradientUnits="userSpaceOnUse" x2="69.126" gradientTransform="matrix(.00064 -.8 -.8 .0008 -.00009276 67.924)" y1="-98.745" x1="67.876">
      <stop id="stop144" style="stop-color:#ffffff" offset="0"/>
      <stop id="stop146" style="stop-color:#c8dae3" offset="1"/>
    </linearGradient>
    <linearGradient id="linearGradient160" y2="-82.922" gradientUnits="userSpaceOnUse" x2="83.117" gradientTransform="matrix(.0002 -.8 -.8 .0008 .000064529 67.924)" y1="-82.922" x1="79.117">
      <stop id="stop162" style="stop-color:#ffffff" offset="0"/>
      <stop id="stop164" style="stop-color:#c8dae3" offset="1"/>
    </linearGradient>
    <linearGradient id="linearGradient178" y2="-72.07" gradientUnits="userSpaceOnUse" x2="84.715" gradientTransform="matrix(.000053422 -.8 -.8 .0008 -.000069864 67.924)" y1="-72.07" x1="69.74">
      <stop id="stop180" style="stop-color:#ffffff" offset="0"/>
      <stop id="stop182" style="stop-color:#c8dae3" offset="1"/>
    </linearGradient>
    <linearGradient id="linearGradient198" y2="-58.671" gradientUnits="userSpaceOnUse" x2="47.591" gradientTransform="matrix(.000055173 -.8 -.8 .0008 -.00027670 67.924)" y1="-58.671" x1="33.091">
      <stop id="stop200" style="stop-color:#ffffff" offset="0"/>
      <stop id="stop202" style="stop-color:#c8dae3" offset="1"/>
    </linearGradient>
    <linearGradient id="linearGradient216" y2="-33.75" gradientUnits="userSpaceOnUse" x2="48.591" gradientTransform="matrix(.000051447 -.8 -.8 .0008 -.00012210 67.924)" y1="-33.75" x1="33.042">
      <stop id="stop218" style="stop-color:#ffffff" offset="0"/>
      <stop id="stop220" style="stop-color:#c8dae3" offset="1"/>
    </linearGradient>
    <linearGradient id="linearGradient234" y2="-43.3" gradientUnits="userSpaceOnUse" x2="64.594" gradientTransform="matrix(.000055268 -.8 -.8 .0008 -.00028256 67.924)" y1="-43.3" x1="50.119">
      <stop id="stop236" style="stop-color:#ffffff" offset="0"/>
      <stop id="stop238" style="stop-color:#c8dae3" offset="1"/>
    </linearGradient>
    <linearGradient id="linearGradient252" y2="-15.58" gradientUnits="userSpaceOnUse" x2="50.16" gradientTransform="matrix(.000089384 -.8 -.8 .0008 -.000009976 67.924)" y1="-15.58" x1="41.209">
      <stop id="stop254" style="stop-color:#ffffff" offset="0"/>
      <stop id="stop256" style="stop-color:#c8dae3" offset="1"/>
    </linearGradient>
    <linearGradient id="linearGradient270" y2="-22.664" gradientUnits="userSpaceOnUse" x2="61.765" gradientTransform="matrix(.000066253 -.8 -.8 .0008 .000038959 67.924)" y1="-22.664" x1="49.69">
      <stop id="stop272" style="stop-color:#ffffff" offset="0"/>
      <stop id="stop274" style="stop-color:#c8dae3" offset="1"/>
    </linearGradient>
    <linearGradient id="linearGradient288" y2="-40.164" gradientUnits="userSpaceOnUse" x2="72.984" gradientTransform="matrix(.000078049 -.8 -.8 .0008 .00031528 67.924)" y1="-40.164" x1="62.734">
      <stop id="stop290" style="stop-color:#ffffff" offset="0"/>
      <stop id="stop292" style="stop-color:#c8dae3" offset="1"/>
    </linearGradient>
    <linearGradient id="linearGradient306" y2="-10.169" gradientUnits="userSpaceOnUse" x2="67.315" gradientTransform="matrix(.000078818 -.8 -.8 .0008 -.000062181 67.924)" y1="-10.169" x1="57.165">
      <stop id="stop308" style="stop-color:#ffffff" offset="0"/>
      <stop id="stop310" style="stop-color:#c8dae3" offset="1"/>
    </linearGradient>
  </defs>
  <g id="g10" transform="matrix(1.25 0 0 -1.25 0 84.887)">
    <g id="g12">
      <g id="g14">
        <g id="g16">
          <g id="g22">
            <path id="path30" style="fill-rule:evenodd;fill:url(#linearGradient24)" d="m70.762 48.964c-0.321-0.027-0.641-0.054-0.961-0.082-0.242 0.137-0.36 0.387-0.36 0.762v0.801c-0.027 0.133-0.043 0.226-0.043 0.281-0.078 0.371-0.277 0.731-0.597 1.078-0.16 0.16-0.321 0.266-0.481 0.32-0.054 0.028-0.093 0.04-0.121 0.04-0.187 0.054-0.359 0.027-0.519-0.079-0.266-0.16-0.332-0.586-0.2-1.281 0.106-0.695 0.04-1.121-0.199-1.281-0.082-0.078-0.226-0.106-0.441-0.078h-0.117c-0.082 0.027-0.161 0.039-0.243 0.039-0.214 0.027-0.332 0.039-0.359 0.039-0.48-0.024-1.082-0.16-1.801-0.399-0.828-0.265-1.347-0.546-1.558-0.839-0.242-0.375-0.387-0.95-0.442-1.719v-0.563c-0.027-0.132-0.043-0.265-0.043-0.398-0.425 0.027-0.824 0.039-1.199 0.039-0.023 0.855-0.051 1.398-0.078 1.641 0 0.718-0.039 1.187-0.121 1.398-0.106 0.293-0.453 0.441-1.039 0.441-0.695-0.027-1.293-0.199-1.801-0.519-0.105-0.055-0.199-0.121-0.281-0.199-0.156-0.137-0.317-0.297-0.477-0.481-0.187-0.16-0.386-0.375-0.601-0.64-0.106-0.161-0.293-0.414-0.559-0.762-0.055-0.051-0.109-0.106-0.16-0.16-0.215-0.133-0.441-0.16-0.68-0.078-0.16 0.027-0.281 0.121-0.359 0.281-0.027 0.051-0.055 0.117-0.082 0.199-0.106 0.32-0.215 0.504-0.32 0.559-0.293 0.242-0.719 0.293-1.282 0.16-0.718-0.16-1.172-0.227-1.359-0.199-0.504 0.105-0.918 0.425-1.238 0.961l-0.282 0.796c-0.082 0.243-0.254 0.469-0.519 0.684-1.039 0.344-2.051 0.531-3.039 0.559-0.586 0.05-1 0-1.242-0.161-0.266-0.16-0.493-0.519-0.68-1.082-0.027-0.05-0.039-0.132-0.039-0.238-0.055-0.32-0.055-0.828 0-1.519 0.027-0.774-0.028-1.321-0.16-1.641-0.16-0.32-0.52-0.586-1.082-0.801-0.692-0.293-1.145-0.519-1.36-0.679-0.238-0.215-0.426-0.52-0.558-0.918-0.16-0.454-0.309-0.762-0.442-0.922-0.183-0.215-0.613-0.414-1.277-0.598-0.563-0.137-0.922-0.441-1.082-0.922-0.078-0.215-0.106-0.519-0.078-0.922 0.051-0.476 0.066-0.797 0.039-0.957-0.375-0.133-0.613-0.082-0.719 0.16-0.109 0.344-0.203 0.614-0.281 0.797-0.348 0.91-0.535 1.524-0.563 1.844-0.078 0.504-0.156 0.813-0.238 0.918-0.133 0.238-0.414 0.332-0.84 0.281-0.398-0.054-0.613-0.265-0.64-0.64-0.028-0.453-0.133-0.762-0.321-0.922-0.16-0.133-0.371-0.199-0.64-0.199l-0.321 0.32c-0.05 0.746-0.906 1.281-2.558 1.601-1.867 0.211-3.012 0.344-3.442 0.399-0.636 0.055-1.382 0-2.238-0.16-1.414-0.293-2.133-0.442-2.16-0.442-0.16-0.023-0.481-0.011-0.961 0.043-0.453 0.051-0.785 0.039-1-0.043-0.293-0.105-0.559-0.265-0.797-0.476 0.106 1.039 0.156 1.824 0.156 2.359-0.023 0.238-0.078 0.465-0.156 0.68-0.16 0.398-0.242 0.613-0.242 0.64-0.133 0.614-0.16 1.227-0.078 1.84 0.105 0.692 0.344 1.227 0.719 1.598 0.265 0.269 0.691 0.508 1.281 0.723 0.637 0.238 1.066 0.453 1.277 0.636 0.375 0.297 0.574 0.723 0.602 1.282-0.028 0.668-0.028 1.175 0 1.519 0.027 0.828 0.465 1.84 1.32 3.043 0.641 0.879 1.84 1.223 3.598 1.039 2.32-0.242 3.679-0.308 4.082-0.199-0.055 2.344 0.519 3.746 1.718 4.199 0.215 0.078 0.856 0.145 1.922 0.199 0.879 0.028 1.453 0.2 1.719 0.52 0.16 0.187 0.238 0.519 0.238 1-0.023 0.508 0.016 0.851 0.121 1.039 0.106 0.187 0.336 0.402 0.68 0.641 0.426 0.32 0.695 0.535 0.801 0.64 0.398 0.613 0.707 1.078 0.922 1.399 0.426 0.562 0.918 0.789 1.476 0.679h-0.398c3.492-0.105 5.961-1.265 7.398-3.476 0.508-0.828 1.375-2 2.602-3.524 0.109-0.133 0.242-0.398 0.398-0.797 0.188-0.375 0.321-0.613 0.403-0.722 0.215-0.266 0.508-0.465 0.879-0.598 0.027 0 0.375-0.094 1.043-0.281 2.503-0.613 4.531-1.945 6.078-4 0.347-0.481 0.8-0.668 1.359-0.559 0.32 0.078 0.867 0.266 1.641 0.559 0.398 0.082 0.933 0.105 1.601 0.082 0.348-0.027 0.867-0.055 1.559-0.082 0.719 0.027 1.281-0.055 1.68-0.238 0.425-0.188 0.816-0.575 1.16-1.161 0.586-1.093 0.785-2.16 0.601-3.203-0.082-0.371-0.242-0.664-0.48-0.879l-0.039-0.039z" inkscape:connector-curvature="0"/>
          </g>
        </g>
      </g>
      <path id="path32" style="fill-rule:evenodd;fill:#848958" d="m54.922 46.566-1.16-1.641c-0.696 0.106-1.176 0.278-1.442 0.52l-0.8-1.082h1.839c-0.132-0.106-0.254-0.278-0.359-0.52 0.16-0.238 0.48-0.371 0.961-0.398-0.027-0.028-0.066-0.055-0.121-0.082-0.238-0.133-0.559-0.172-0.961-0.117 0.109-0.082 0.269-0.176 0.48-0.282-0.078-0.054-0.144-0.105-0.199-0.16-1.387 0.32-2.414 0.481-3.082 0.481l-1.879-0.801-0.558 0.082c0.187 0.344 0.254 0.812 0.199 1.398-0.051 0.535-0.172 1-0.36 1.399-0.187 0.347-0.492 0.656-0.918 0.922-0.453 0.238-0.761 0.226-0.921-0.039 0 0.718-0.118 1.347-0.36 1.878-0.105 0.293-0.254 0.52-0.441 0.68 0 0.106 0.015 0.188 0.039 0.238 0.187 0.563 0.414 0.922 0.683 1.082 0.239 0.161 0.653 0.215 1.239 0.161 0.988-0.028 2-0.215 3.039-0.559 0.269-0.215 0.441-0.441 0.523-0.684l0.278-0.796c0.32-0.536 0.734-0.856 1.242-0.961 0.183-0.028 0.64 0.039 1.359 0.199 0.559 0.133 0.985 0.082 1.281-0.16 0.106-0.055 0.211-0.239 0.317-0.559 0.027-0.082 0.055-0.148 0.082-0.199zm1.238-1.84c0.028 0.266 0.012 0.57-0.039 0.918-0.027 0.293-0.082 0.535-0.16 0.719 0.051 0.054 0.105 0.109 0.16 0.16 0.266 0.348 0.453 0.601 0.559 0.762 0.215 0.265 0.414 0.48 0.597 0.64 0.055-0.133 0.121-0.293 0.203-0.48l0.2 0.199c0 0.266 0.027 0.52 0.082 0.762 0.078 0.078 0.172 0.144 0.277 0.199 0.508 0.32 1.109 0.492 1.801 0.519 0.586 0 0.933-0.148 1.039-0.441 0.082-0.211 0.121-0.68 0.121-1.398 0.027-0.243 0.055-0.786 0.078-1.641-1.437 0.027-2.691-0.133-3.758-0.48-0.398-0.106-0.785-0.254-1.16-0.438zm6.16 1.277v0.563c0.051 0.773 0.2 1.344 0.442 1.719 0.211 0.293 0.73 0.574 1.558 0.839 0.719 0.239 1.321 0.375 1.801 0.399 0.024 0 0.145-0.012 0.359-0.039-0.32-0.215-0.628-0.602-0.921-1.16-0.454-0.746-0.868-1.215-1.239-1.399-0.054 0.371-0.054 0.746 0 1.117-0.132-0.585-0.359-1.066-0.679-1.437-0.403-0.426-0.84-0.629-1.321-0.602zm5.039 2.52c-0.05-0.024-0.093-0.051-0.121-0.078-0.183 0.265-0.316 0.597-0.398 1 0.215-0.028 0.359 0 0.441 0.078 0.239 0.16 0.305 0.586 0.199 1.281-0.132 0.695-0.066 1.121 0.2 1.281 0.16 0.106 0.332 0.133 0.519 0.079-0.105-0.106-0.226-0.215-0.359-0.321 0.16 0.106 0.32 0.199 0.48 0.281 0.16-0.054 0.321-0.16 0.481-0.32 0.32-0.347 0.519-0.707 0.601-1.078 0-0.055 0.012-0.148 0.039-0.281-0.054-0.055-0.093-0.106-0.121-0.16-0.828-0.801-1.48-1.387-1.961-1.762zm17.879-38.039-1.238 0.039c-0.375 0.027-0.945 0.016-1.719-0.039 1.172 0.105 2.16 0.105 2.957 0zm-73.476 1.64c-0.43 0.106-0.856 0.239-1.282 0.399 0.375-0.106 0.575-0.16 0.598-0.16l0.684-0.239zm1.277-2.281c-0.238-0.133-0.492-0.293-0.758-0.48-0.054-0.348 0.012-0.614 0.199-0.801 0.106-0.105 0.254-0.184 0.442-0.238-0.117 0.023-0.211 0.054-0.281 0.101l-0.039 0.02c-0.055 0.023-0.094 0.066-0.122 0.117-0.214 0.187-0.347 0.414-0.402 0.68 0.32 0.242 0.641 0.441 0.961 0.601zm-4.277 11.563c-0.215-0.055-0.414-0.094-0.602-0.121v0.039c0.188 0.027 0.387 0.054 0.602 0.082zm1.058 4.898 0.02-0.019 0.16-0.321c-0.086 0.106-0.145 0.219-0.18 0.34zm22.059 3.981c0.375 0.078 0.976 0.093 1.801 0.039 0.508 0.082 1.215 0.254 2.121 0.519 0.027-0.078 0.054-0.144 0.078-0.199 0.242-0.535 0.762-0.734 1.562-0.602 0.399 0.082 0.852 0.321 1.36 0.723 0.078 0.051 0.144 0.106 0.199 0.16 0.535-0.402 0.453-0.734-0.238-1-0.348-0.082-0.641-0.148-0.883-0.203-0.531-0.023-0.891-0.051-1.078-0.078 0.054-0.027 0.211-0.055 0.48-0.082-0.136 0-0.226-0.012-0.281-0.039 0.48-0.375 0.547-0.691 0.199-0.961l-1.519 1.121c-2.028 0-3.426-0.109-4.2-0.32-1.468-0.399-2.468-1.293-3-2.68-0.132-0.32-0.214-0.84-0.242-1.562-0.05 0.136-0.117 0.242-0.199 0.32-0.266-0.106-0.547-0.277-0.84-0.52 0.055 0.375 0.082 0.762 0.082 1.161l-1.883 0.722c-0.023 0.32-0.039 0.574-0.039 0.762l-0.281-0.602-1.277 0.481c0.078 0.027 0.144 0.054 0.199 0.082 1.387-0.11 3.066 0.316 5.039 1.277 0.746 0.348 1.695 0.84 2.84 1.481zm-6.719 0.8c-0.32-0.242-0.734-0.535-1.238-0.882-1.067-0.907-1.524-1.653-1.363-2.239l-0.278 0.118c-0.426 0.082-1.066 0.292-1.922 0.64-0.828 0.32-1.464 0.535-1.918 0.641h-0.082c0.161 0.082 0.321 0.187 0.481 0.32l0.558 0.84c0.481 0.508 1.067 0.906 1.762 1.199 0.613 0.242 1.281 0.293 2 0.16 0.508-0.078 1.172-0.343 2-0.797zm16.481 1.278c0.054-0.106 0.121-0.211 0.199-0.317 0.215-0.32 0.305-0.629 0.281-0.922-0.402-0.16-0.949-0.214-1.641-0.16-0.558 0.028-1 0.055-1.32 0.082 0.453 0.371 0.762 0.598 0.918 0.68 0.508 0.266 1.027 0.477 1.563 0.637zm4.961-1.039c-0.27-0.028-0.481-0.028-0.641 0-0.055 0.215-0.066 0.519-0.039 0.922v0.039c0.238-0.11 0.449-0.227 0.637-0.36 0.242-0.187 0.441-0.347 0.601-0.48h-0.121c-0.105-0.028-0.211-0.055-0.316-0.082v0.121c-0.055-0.051-0.098-0.106-0.121-0.16zm2.277-0.481-0.84-0.32c-0.078-0.133-0.16-0.266-0.238-0.399 0 0.079 0.011 0.161 0.039 0.239 0.055 0.269 0.094 0.496 0.121 0.683 0.133-0.054 0.293-0.093 0.48-0.121 0.161-0.027 0.305-0.054 0.438-0.082zm4.082-1h-0.281c-0.188 0.266-0.348 0.52-0.481 0.762 0.106 0 0.227 0.012 0.36 0.039 0.054-0.242 0.175-0.492 0.359-0.762l0.043-0.039zm0.879 0.039-0.918 0.801h0.117c0.215-0.133 0.481-0.105 0.801 0.082 0.133-0.215 0.265-0.402 0.398-0.562-0.023-0.079-0.039-0.157-0.039-0.239l-0.039-0.082h-0.32zm-7.078-12.156c0.133 0.106 0.265 0.184 0.398 0.238-0.187 0-0.348 0.039-0.48 0.121-0.028 0.559 0.039 1.25 0.199 2.079 0.027 0.082 0.043 0.16 0.043 0.242 0.051 0.027 0.105 0.051 0.156 0.078 0.641 0.348 1.016 0.64 1.121 0.883l-1 0.558c0 0.184 0.016 0.332 0.039 0.438 0.375 0.109 0.684 0.16 0.922 0.16 0.481 0 0.852-0.145 1.117-0.438 0.188-0.16 0.442-0.496 0.762-1 0.027-0.054 0.039-0.148 0.039-0.281 0-0.105 0.043-0.187 0.121-0.242 0.239-0.184 0.719-0.277 1.442-0.277 0.398-0.082 0.679-0.188 0.839-0.321 0.161-0.132 0.36-0.414 0.598-0.84 0.11-0.214 0.27-0.562 0.481-1.042 0.214-0.399 0.496-0.614 0.839-0.637 0.536-0.055 0.774 0.265 0.723 0.957-0.082 0.988-0.109 1.535-0.082 1.64 0.106 0.243 0.254 0.442 0.441 0.602 0.399-0.055 0.68 0 0.84 0.16 0.078 0.078 0.145 0.172 0.2 0.278 0.16 0.027 0.32 0.042 0.48 0.042 0.133-0.082 0.293-0.148 0.48-0.199l-0.199 0.157c0.184-0.024 0.371-0.09 0.559-0.2-0.16 0-0.281 0.016-0.36 0.043 0.399-0.375 0.719-0.734 0.961-1.082 0.024-0.082 0.067-0.16 0.118-0.242 0.214-0.48 0.242-0.93 0.082-1.359-0.293-0.078-0.629-0.051-1 0.082 0.586-1.387 0.597-2.282 0.039-2.68-0.586-0.453-1.414-0.066-2.481 1.16-0.105-0.215-0.199-0.734-0.277-1.562-0.137-0.719-0.457-1.067-0.961-1.039-0.453 0-0.789 0.398-1 1.199-0.133 0.961-0.254 1.574-0.359 1.84-0.028-0.266-0.082-0.891-0.161-1.879-0.214-0.828-0.629-1.106-1.242-0.84-0.48 0.215-0.664 0.891-0.558 2.039-0.161-0.48-0.414-0.84-0.762-1.078-0.399-0.27-0.813-0.27-1.238 0-0.348 0.211-0.508 0.703-0.481 1.48 0.106 0.907 0.16 1.504 0.16 1.797-0.132-0.371-0.332-0.664-0.601-0.879-0.321-0.211-0.641-0.265-0.957-0.156zm12.437-4.844 0.039 0.481v-0.481l0.043-0.156c-0.027 0.023-0.054 0.039-0.082 0.039v0.117zm-2.078 6.442c-0.133-0.481 0.039-0.813 0.52-1-0.161 0.425-0.332 0.761-0.52 1z" inkscape:connector-curvature="0"/>
      <path id="path34" style="fill-rule:evenodd;fill:#6d7247" d="m65.602 44.324c-1.204 0.746-1.989 1.148-2.364 1.199-0.316 0.027-0.636 0.055-0.957 0.082 0 0.133 0.012 0.266 0.039 0.398 0.481-0.027 0.918 0.176 1.321 0.602 0.32 0.371 0.547 0.852 0.679 1.437-0.054-0.371-0.054-0.746 0-1.117 0.375 0.184 0.785 0.653 1.242 1.399 0.293 0.558 0.598 0.945 0.918 1.16 0.082 0 0.161-0.012 0.243-0.039h0.117c0.082-0.403 0.215-0.735 0.398-1 0.028 0.027 0.071 0.054 0.121 0.078 1.547 0.242 2.332 0.359 2.36 0.359h0.082c0.32 0.028 0.64 0.055 0.961 0.082 0.476 0 0.918-0.027 1.316-0.082 0.32-1.117-0.652-1.773-2.918-1.957 0.348-0.082 0.574-0.32 0.68-0.722-1.094-0.719-2.266-1.266-3.52-1.637-0.242-0.082-0.48-0.16-0.718-0.242zm1.757 4.199c0.481 0.375 1.133 0.961 1.961 1.762l0.078 0.078c-0.238-0.371-0.492-0.703-0.757-1l-0.243-0.239c-0.32-0.242-0.664-0.441-1.039-0.601zm0.481-11.598c0.586 0.399 1.281 0.371 2.082-0.082 1.387-0.801 2.238-1.183 2.558-1.16 0.399 0.055 0.786 0.227 1.161 0.52 0.398 0.402 0.718 0.707 0.961 0.921 0.238 0.188 0.492 0.293 0.757 0.321h0.52c-0.078-0.055-0.145-0.106-0.199-0.16-0.508-0.481-1.149-0.84-1.918-1.082 0.879-0.024 1.277-0.477 1.199-1.36-0.082-0.879-0.469-1.48-1.16-1.801 0.16-0.238 0.254-0.48 0.277-0.718l-2 0.558c-0.289 0.055-0.558 0.094-0.797 0.121-0.027 0.215-0.054 0.442-0.082 0.68-0.426 0.109-0.785-0.027-1.078-0.398 0.266 0.48 0.399 1.066 0.399 1.757 0 0.75-0.188 1.254-0.559 1.524-0.481-0.082-0.961-0.297-1.441-0.641-0.399-0.32-0.641-0.656-0.719-1 0.051 0.586 0.078 1.051 0.078 1.399 0 0.215-0.012 0.414-0.039 0.601zm-2.039 0.117c-0.16-0.21-0.281-0.449-0.36-0.718-0.082 0.133-0.203 0.242-0.363 0.32-0.156 0.082-0.41 0.082-0.758 0-0.398-0.051-0.668-0.039-0.8 0.039-0.079 0.055-0.133 0.121-0.161 0.199 0.481 0.348 1.016 0.469 1.602 0.364 0.211-0.028 0.492-0.094 0.84-0.204zm22.437-6.796c0.055 0.078 0.094 0.144 0.121 0.199 0.321 0.48 0.493 0.945 0.52 1.398 0.16 0.082 0.293 0.149 0.398 0.199 0.11-0.531-0.105-1.027-0.636-1.48-0.133-0.105-0.266-0.211-0.403-0.316zm-0.437-0.563h0.238c0.402-0.801 0.094-1.48-0.918-2.039-0.559-0.32-1.398-0.668-2.519-1.039 0.906 0.133 1.371-0.109 1.398-0.723 0-0.613-0.426-0.933-1.277-0.957 0.691-0.187 0.918-0.586 0.679-1.199-0.242-0.641-1.453-0.934-3.64-0.883 0.105-0.105 0.117-0.265 0.039-0.48h-0.199c-1.493-0.188-2.586-0.281-3.282-0.281 0.106 0.109 0.16 0.226 0.16 0.363 0 0.316-0.132 0.504-0.402 0.558 1.656-0.082 2.496 0.227 2.524 0.918 0.05 0.481-0.094 0.735-0.442 0.762 0.531 0.16 0.973 0.399 1.32 0.719 0.426 0.398 0.332 0.746-0.281 1.039 0.426 0.187 0.668 0.48 0.719 0.883 0.293 0.133 0.574 0.238 0.84 0.32 0.215 0.051 0.574 0.023 1.082-0.082 0.453-0.105 0.785-0.121 1-0.039l0.039 1.16c0.242 0.024 0.613 0.066 1.121 0.117 0.426 0.055 0.785 0.16 1.078 0.321 0.27 0.164 0.508 0.351 0.723 0.562zm-16.16-4.641c0.613-0.027 1.414 0 2.398 0.082 0.375-0.027 0.707-0.109 1-0.242-0.426-0.023-0.785-0.117-1.078-0.277-0.375-0.215-0.574-0.508-0.602-0.883 0 0.402-0.093 0.789-0.281 1.16-0.773-0.05-1.344-0.386-1.719-1 0.133 0.321 0.227 0.707 0.282 1.16zm-0.68 5.723c0.586 0 1.238 0.039 1.961 0.117 0.266 0.028 0.531 0.11 0.797 0.242-0.078-0.082-0.184-0.16-0.321-0.242 0.243 0.082 0.575 0.082 1 0 0.055-0.211 0.082-0.437 0.082-0.679-0.187-0.051-0.359-0.118-0.519-0.2-0.828-0.48-1.508-0.851-2.039-1.121-0.188-0.105-0.414-0.211-0.684-0.316 0.11 0.586 0.094 1.133-0.039 1.637-0.027 0-0.172-0.012-0.437-0.039-0.16 0-0.297-0.04-0.403-0.118 0.243 0.184 0.442 0.426 0.602 0.719zm12.719 1c0 0.106 0.015 0.211 0.043 0.32 0.156 0.051 0.304 0.09 0.437 0.118l-0.48-0.438zm-2.399-18.601h-0.722l-0.879 0.519h-1.36c-0.375-0.051-0.64-0.226-0.8-0.519-0.348 0-0.653-0.079-0.918-0.239 0.507 0.399 0.492 0.719-0.04 0.957-0.402 0.215-0.894 0.321-1.484 0.321v0.043c3.149 0.132 4.656 0.652 4.524 1.558-0.082 0.293-0.243 0.481-0.481 0.559 0.934-0.078 1.531-0.106 1.801-0.078 0.426 0.05 0.719 0.183 0.879 0.398h0.078c0.402-0.051 0.683 0.027 0.844 0.242 0.132 0.317 0.25 0.586 0.355 0.797 0.32 0.668 0.777 1.215 1.363 1.641 0.719 0.508 1.414 0.695 2.079 0.562 0.16-0.027 0.402-0.136 0.718-0.32-0.133-0.453-0.398-0.789-0.797-1 0.774 0.293 1.426 0.387 1.957 0.277 0.27-0.691 0.137-1.316-0.398-1.879-0.422-0.421-0.977-0.714-1.66-0.879 0.238 0.051 0.523 0.036 0.859-0.042 0.426-1.118-0.304-1.852-2.199-2.2-1.281-0.238-2.613-0.281-4-0.117 0.16-0.215 0.254-0.414 0.281-0.601zm-68.359 15.281c-0.16-0.188-0.309-0.387-0.442-0.602-0.214-0.293-0.519-0.734-0.921-1.32-0.239-0.348-0.586-0.797-1.039-1.359-0.239-0.293-0.442-0.586-0.598-0.879-0.641 0.531-0.844 1.148-0.602 1.839 0.078-0.027 0.2-0.054 0.36-0.082 0.105 0 0.215-0.027 0.32-0.078l-0.16 0.321-0.02 0.019c-0.015 0.028-0.019 0.059-0.019 0.098v0.082l-0.039 0.078v0.562c-0.028 0.079-0.043 0.133-0.043 0.161l0.679-0.2c-0.343 0.348-0.425 0.758-0.238 1.239 0.215 0.375 0.371 0.691 0.481 0.961 0.027 0.027 0.054 0.039 0.078 0.039 0.48 0.027 1.027-0.16 1.64-0.559 0.188-0.105 0.375-0.215 0.563-0.32zm52.918-15.16c-0.719 0.398-1.133 0.945-1.238 1.64 0.132-1.066-0.309-1.453-1.321-1.16-0.16 1.117-0.027 2.172 0.399 3.16-0.321-0.402-0.707-0.586-1.16-0.562-0.079 0.187-0.094 0.414-0.04 0.683 0.161 0 0.36 0.012 0.598 0.039 0.402 0.051 0.668 0.067 0.801 0.039 0.43-0.05 0.894-0.238 1.402-0.558 0.453-0.32 0.824-0.668 1.117-1.039l0.442-0.762c0.082-0.348 0.082-0.558 0-0.641-0.051-0.078-0.227-0.214-0.52-0.398-0.187-0.137-0.347-0.281-0.48-0.441zm-12.918 17.398 0.918-0.801c-0.348 0-0.641-0.011-0.879-0.039l-0.043 0.039c-0.184 0.27-0.305 0.52-0.359 0.762 0.132 0 0.253 0.016 0.363 0.039zm-21.961-18.641c0.266 0.055 0.586 0.149 0.961 0.282 0.558 0.082 1.012-0.067 1.359-0.442 0.133-0.133 0.266-0.41 0.399-0.84 0.105-0.343 0.242-0.613 0.398-0.796-0.879-0.188-1.371 0.171-1.476 1.078-0.161-0.559-0.508-0.735-1.043-0.52-0.348 0.133-0.547 0.414-0.598 0.84v0.398zm-0.84-0.16c-0.133-0.05-0.266-0.105-0.402-0.156-0.774-0.215-1.332-0.16-1.68 0.156-0.211 0.188-0.305 0.442-0.277 0.762h0.039c0.344-0.133 0.758-0.332 1.238-0.602 0.348-0.132 0.707-0.183 1.082-0.16zm-2.519 0.801c-0.481-0.293-1.176-0.437-2.082-0.437h-0.161c0.266 0.105 0.602 0.238 1 0.398 0.453 0.133 0.868 0.148 1.243 0.039zm-1.762 4.563c-0.348 0.211-0.535 0.597-0.559 1.156 0 0.16 0.012 0.297 0.039 0.402 0.078 0.078 0.172 0.133 0.282 0.16 0.238 0.508 0.343 1.184 0.32 2.039 0 0.266-0.016 0.575-0.043 0.922 0.453 0.532 0.789 1.067 1 1.598 0.16 0.402 0.266 0.867 0.32 1.402 0.293 0.239 0.574 0.41 0.84 0.52 0.082-0.082 0.149-0.188 0.199-0.321v-0.16c0-0.75-0.078-1.293-0.238-1.64-0.055-0.16-0.133-0.254-0.238-0.282-0.11-0.05-0.203-0.117-0.282-0.199-0.906-1.172-1.441-2.386-1.601-3.64-0.078-0.879-0.094-1.532-0.039-1.957zm6.558 2.039c0-0.133-0.023-0.282-0.078-0.442-0.16 0.028-0.308 0.039-0.441 0.039h-0.199c0.242 0.188 0.48 0.321 0.718 0.403zm2.801-1c-0.773 0.293-1.586 0.48-2.437 0.558-0.137 0.133-0.242 0.293-0.321 0.481 0.211 0.109 0.426 0.199 0.637 0.281 0.43 0.133 0.75 0.144 0.961 0.039 0.133-0.051 0.387-0.227 0.762-0.52 0.265-0.187 0.558-0.332 0.879-0.441-0.106-0.16-0.266-0.293-0.481-0.398zm3.242 0.281c-0.027-0.055-0.043-0.109-0.043-0.16-0.21 0.027-0.398 0.039-0.558 0.039 0.055 0.027 0.105 0.039 0.16 0.039 0.133 0.027 0.281 0.055 0.441 0.082zm1.079 0.238h-0.161c0.055 0.028 0.106 0.039 0.161 0.039v-0.039zm14.679 11.16c0 0.082 0.016 0.16 0.039 0.239l0.043-0.079-0.082-0.16zm-41.918-10.398c0 0.316 0.012 0.664 0.039 1.039-0.105-0.348-0.215-0.652-0.32-0.922l-1.281 0.563c-0.024 0.187-0.039 0.398-0.039 0.64l3.082 0.039c1.41 0 2.543-0.215 3.398-0.64 0.238-0.133 0.535-0.375 0.879-0.719 0.348-0.348 0.629-0.574 0.84-0.68 0.215-0.137 0.734-0.203 1.562-0.203 0.426 0 0.879 0.082 1.36 0.242 0.238-1.066-0.266-1.386-1.52-0.961-1.121 0.403-2.066 0.973-2.84 1.719 0-0.023 0.012-0.051 0.039-0.078 0.293-0.586 0.348-1.039 0.161-1.359-0.082-0.188-0.309-0.414-0.68-0.68-0.293-0.188-0.453-0.481-0.481-0.883-0.082-0.023-0.148-0.039-0.199-0.039v1.238l-4 1.684zm7.68-6.16c-0.188 0-0.43 0.027-0.723 0.078 0.082 0.187 0.149 0.414 0.203 0.68 0.028-0.161 0.094-0.317 0.2-0.481 0.078-0.105 0.187-0.199 0.32-0.277zm22.84-2.883c-0.215-0.293-0.403-0.465-0.563-0.52-0.293-0.078-0.558-0.027-0.797 0.161-0.242 0.187-0.347 0.425-0.32 0.718-0.027-0.371-0.187-0.57-0.48-0.597-0.403 0.027-0.696 0.011-0.879-0.039-0.43-0.137-0.657-0.243-0.684-0.321-0.023-0.082-0.066-0.336-0.117-0.761-0.106-0.481-0.242-0.801-0.402-0.961-0.211-0.211-0.414 0-0.598 0.64 0.027-0.664-0.293-1.094-0.961-1.277-0.586-0.16-1.16-0.082-1.719 0.238-0.508 0.293-0.789 0.653-0.84 1.082 0.028 0.371 0.039 0.719 0.039 1.039 0.426-0.242 1.051-0.32 1.879-0.242 0.403 0.055 0.84 0.27 1.321 0.641 0.535 0.425 0.972 0.695 1.32 0.8 0.586 0.188 1.16 0.227 1.719 0.122 0.109-0.028 0.64-0.215 1.601-0.563 0.16-0.051 0.321-0.105 0.481-0.16zm16.437 2.359v0.481l-0.039-0.481c-0.105 0-0.211 0.016-0.32 0.043-0.344 0.184-0.598 0.321-0.758 0.399-1.121 0.558-2.226 0.8-3.32 0.718-1.387-0.105-2.922-0.785-4.602-2.039 0.082-0.238 0.309-0.414 0.68-0.519 0.402-0.133 0.656-0.266 0.762-0.399 0.132-0.187 0.093-0.386-0.118-0.601-0.32-0.32-0.496-0.547-0.523-0.68-0.078-0.265-0.078-0.519 0-0.762-0.105 0.11-0.199 0.227-0.277 0.36-0.188 0.457-0.348 0.816-0.481 1.082-0.054-0.188-0.176-0.535-0.363-1.039-0.211-0.43-0.477-0.613-0.797-0.563-0.48 0.055-0.629 0.508-0.441 1.364-0.266 0-0.801-0.071-1.602-0.204-0.691-0.105-1.25-0.117-1.68-0.039-0.05 0.375 0.028 0.719 0.243 1.039-0.426-0.265-0.934-0.382-1.52-0.359 0.078 0.082 0.145 0.16 0.199 0.242 0.188 0.321 0.254 0.746 0.199 1.278-0.027 0.507-0.16 0.91-0.398 1.203 0 0.027-0.016 0.039-0.043 0.039 0.027 0.027 0.055 0.054 0.082 0.082 0.481 0.504 0.961 0.824 1.441 0.957 0.161 0.027 0.758 0.066 1.801 0.121 0.746 0.055 1.317 0.199 1.719 0.441-0.906-0.054-1.48-0.07-1.719-0.043-0.828 0.028-1.32 0.215-1.484 0.563-0.184 0.344-0.106 0.812 0.242 1.398 0.215 0.321 0.426 0.575 0.641 0.762 0.32-0.109 0.64-0.055 0.961 0.156 0.265 0.215 0.465 0.508 0.597 0.883 0-0.293-0.05-0.894-0.16-1.801-0.023-0.773 0.133-1.265 0.481-1.48 0.425-0.266 0.839-0.266 1.242 0 0.347 0.242 0.597 0.601 0.758 1.082-0.106-1.149 0.082-1.828 0.562-2.043 0.613-0.266 1.024 0.016 1.238 0.84 0.082 0.988 0.133 1.613 0.161 1.883 0.105-0.27 0.226-0.883 0.359-1.84 0.215-0.801 0.547-1.203 1-1.203 0.508-0.024 0.828 0.32 0.961 1.043 0.078 0.824 0.172 1.347 0.281 1.558 1.067-1.226 1.891-1.613 2.477-1.16 0.562 0.402 0.55 1.293-0.039 2.68 0.375-0.133 0.707-0.16 1-0.078 0.16 0.425 0.132 0.878-0.079 1.359l0.079-0.082c0.16-0.106 0.453-0.09 0.882 0.043 0.317 0.078 0.559 0.133 0.719 0.16 0.106-0.59 0.172-0.934 0.199-1.043 0.133-0.984 0.106-1.586-0.078-1.801-0.242-0.265-0.574-0.332-1-0.199-0.375 0.109-0.683 0.309-0.922 0.602 0.055-0.403 0.332-1.121 0.84-2.161 0.426-0.878 0.574-1.613 0.442-2.199l-0.485-0.043zm-1.957 8.203 0.199-0.16c-0.187 0.051-0.347 0.117-0.48 0.199 0.078 0 0.172-0.015 0.281-0.039zm1.16-1.242c-0.242 0.348-0.562 0.707-0.961 1.082 0.082-0.027 0.2-0.043 0.36-0.043 0.238-0.133 0.398-0.371 0.48-0.718 0.028-0.106 0.067-0.215 0.121-0.321zm-1.32-0.519c0.184-0.239 0.359-0.575 0.52-1-0.481 0.187-0.653 0.519-0.52 1zm-9.922 2.601-0.519 0.321c0.187 0.05 0.375 0.089 0.558 0.117-0.023-0.106-0.039-0.254-0.039-0.438zm-0.519-3.84c-0.133 0.079-0.254 0.184-0.36 0.317-0.215 0.269-0.293 0.59-0.242 0.961 0.055 0.402 0.336 0.746 0.844 1.039 0-0.078-0.016-0.156-0.043-0.238-0.16-0.825-0.227-1.52-0.199-2.079z" inkscape:connector-curvature="0"/>
      <g id="g36">
        <g id="g38">
          <g id="g44">
            <path id="path52" style="fill-rule:evenodd;fill:url(#linearGradient46)" d="m60 34.324c-0.105 0.027-0.199 0.039-0.281 0.039-0.028 0.027-0.051 0.043-0.078 0.043-0.11 0.023-0.227 0.051-0.364 0.078-0.746 0.16-1.371 0.414-1.879 0.762 0.266 0.48 0.442 0.863 0.52 1.16 0.109 0.265 0.16 0.89 0.16 1.879-0.027 0.507-0.144 0.933-0.359 1.281-0.028 0.051-0.321 0.398-0.879 1.039-0.535 0.613-0.895 1.012-1.082 1.199-0.399 0.32-0.895 0.559-1.481 0.719-0.398 0.109-0.773 0.203-1.117 0.281 0.051 0.055 0.117 0.106 0.199 0.16 0.161 0.133 0.317 0.266 0.481 0.399 0.051 0.027 0.094 0.054 0.117 0.082h0.043c0.668 0.508 1.348 0.922 2.039 1.238 0.027 0.027 0.066 0.043 0.121 0.043 0.375 0.184 0.762 0.332 1.16 0.438 1.067 0.347 2.321 0.507 3.758 0.48 0.375 0 0.774-0.012 1.199-0.039 0.321-0.027 0.645-0.055 0.961-0.082 0.375-0.051 1.16-0.453 2.36-1.199 0.109-0.055 0.226-0.121 0.363-0.2 1.144-0.718 2.051-0.933 2.719-0.64l1.597-1c1.52 0 3.43-0.535 5.723-1.602 0.586-0.265 0.957-0.547 1.117-0.84 0.16-0.265 0.215-0.718 0.16-1.359-0.05-0.48-0.117-0.773-0.199-0.879-0.105-0.16-0.375-0.265-0.801-0.32-0.16 0-0.293-0.012-0.398-0.039h-0.52c-0.269-0.028-0.519-0.133-0.761-0.321-0.239-0.214-0.559-0.519-0.961-0.921-0.371-0.293-0.758-0.465-1.16-0.52-0.317-0.027-1.172 0.359-2.559 1.16-0.797 0.453-1.492 0.481-2.078 0.082-0.16-0.109-0.309-0.254-0.442-0.441-0.64 0.242-1.171 0.426-1.601 0.558-0.344 0.11-0.625 0.176-0.84 0.204-0.586 0.105-1.117-0.016-1.598-0.364-0.214-0.133-0.402-0.304-0.562-0.519h-0.039c-0.106-0.106-0.332-0.465-0.68-1.078-0.32-0.481-0.601-0.786-0.84-0.922-0.211-0.133-0.625-0.145-1.238-0.039z" inkscape:connector-curvature="0"/>
          </g>
        </g>
      </g>
      <path id="path54" style="fill-rule:evenodd;fill:#585d3b" d="m62.801 36.363c0.16 0.215 0.347 0.386 0.558 0.519 0.028-0.078 0.082-0.144 0.161-0.199 0.132-0.078 0.402-0.094 0.8-0.039 0.348 0.082 0.602 0.082 0.758 0 0.16-0.078 0.281-0.187 0.36-0.32 0.082 0.265 0.203 0.508 0.363 0.718 0.426-0.132 0.957-0.316 1.597-0.558 0.133 0.187 0.282 0.332 0.442 0.441 0.027-0.187 0.039-0.386 0.039-0.601 0-0.348-0.027-0.813-0.078-1.399 0.078 0.344 0.32 0.68 0.719 1 0.48 0.344 0.957 0.559 1.441 0.641 0.371-0.27 0.559-0.774 0.559-1.524 0-0.691-0.133-1.277-0.399-1.757 0.289 0.371 0.652 0.507 1.078 0.398 0.028-0.238 0.055-0.465 0.078-0.68-0.746 0.082-1.304 0.106-1.679 0.082-1.039-0.109-1.598-0.586-1.68-1.441 0.586-0.559 1.602-0.852 3.043-0.879-0.16-0.293-0.363-0.535-0.602-0.723 0.106 0.082 0.239 0.122 0.399 0.122 0.269 0.027 0.414 0.039 0.441 0.039 0.133-0.504 0.149-1.051 0.039-1.641-0.238-0.078-0.519-0.172-0.84-0.277-0.507-0.243-0.824-0.629-0.96-1.161-0.293-1.199 0.226-1.882 1.562-2.042 0.188-0.024 0.398-0.04 0.641-0.04-0.055-0.453-0.149-0.839-0.282-1.16 0.375 0.614 0.946 0.95 1.719 1 0.188-0.371 0.281-0.758 0.281-1.16 0.028 0.375 0.227 0.668 0.602 0.883 0.293 0.16 0.652 0.254 1.078 0.277 0.027 0 0.066-0.011 0.121-0.039l0.039-0.039c0.188-0.078 0.481-0.254 0.879-0.519 0.375-0.215 0.817-0.36 1.32-0.442 0.563-0.078 1.016-0.027 1.364 0.16 0.238 0.133 0.449 0.387 0.636 0.762 0.27 0.559 0.414 0.852 0.442 0.879 0.265 0.402 0.707 0.816 1.32 1.242 0.266 0.16 0.52 0.305 0.762 0.438-0.055-0.399-0.297-0.692-0.723-0.879 0.613-0.293 0.707-0.641 0.281-1.039-0.347-0.321-0.785-0.563-1.32-0.723 0.348-0.023 0.492-0.277 0.442-0.758-0.028-0.691-0.868-1-2.52-0.922 0.266-0.05 0.398-0.238 0.398-0.558 0-0.133-0.05-0.254-0.16-0.36h-0.078c-0.719 0.028-1.109 0.039-1.16 0.039-0.453 0-0.84-0.066-1.16-0.199-0.399-0.187-0.801-0.453-1.199-0.801 0.05 0.27 0.089 0.547 0.117 0.84-0.481 0.243-1.145 0.071-2-0.519-0.852-0.586-1.371-1.199-1.559-1.84 0 0.723-0.293 1.082-0.879 1.082l-0.242-0.48c0.082 1.414 0.106 2.425 0.082 3.039-0.082 1.359-0.375 2.027-0.883 2l-0.238-0.079-0.082 0.516c-0.078-0.16-0.133-0.348-0.16-0.559-0.051 0.375-0.09 0.747-0.117 1.122-0.11-0.27-0.282-0.442-0.52-0.52-0.269-0.082-0.547-0.027-0.84 0.156-0.347 0.215-0.48 0.551-0.402 1 0.109 0.563 0.109 0.961 0 1.203-0.188 0.317-0.398 0.465-0.641 0.438-0.347-0.024-0.597 0.043-0.757 0.203-0.348 0.316-0.375 0.691-0.082 1.117l0.878 0.883c-0.957-0.055-1.21 0.211-0.757 0.797 0.691 0.695 1.105 1.148 1.238 1.359l-0.879 0.242c-0.215-0.16-0.547-0.308-1-0.441-0.508-0.16-0.84-0.16-1 0-0.266 0.242-0.293 0.492-0.078 0.762 0.266 0.32 0.355 0.57 0.277 0.758-0.051 0.136-0.547 0.375-1.48 0.722-0.508 0.184-0.184 0.492 0.961 0.918-0.371 0.215-0.668 0.387-0.879 0.52zm12.277-22.117c0.027 0.425-0.078 0.796-0.316 1.117-0.242 0.347-0.574 0.508-1 0.48 0.398 0.188 0.718 0.481 0.961 0.883 0.156 0.238 0.25 0.477 0.277 0.719 0.082-0.055 0.133-0.11 0.16-0.16 0-0.028 0.094-0.293 0.281-0.801 0.348-0.985 0.825-1.453 1.438-1.399 0.402 0.024 0.801 0.348 1.203 0.957 0.559 0.801 0.891 1.254 1 1.36 0.664 0.562 1.184 0.64 1.559 0.242 0.507-0.559 0.894-0.879 1.16-0.961-0.16-0.211-0.453-0.348-0.879-0.398-0.27-0.028-0.867 0-1.801 0.078 0.238-0.078 0.399-0.266 0.481-0.559 0.132-0.906-1.375-1.426-4.524-1.558zm2.442-1.082c-0.055-0.079-0.094-0.172-0.122-0.282 0.454-0.211 1.028-0.316 1.723-0.316 0.801 0 1.317 0.172 1.559 0.519l-0.121 0.079h0.718v-0.04c0.028-0.347-0.132-0.558-0.476-0.64-0.16-0.051-0.348-0.067-0.563-0.039 0.242-0.133 0.907-0.293 2-0.481 0.801-0.265 0.817-0.761 0.039-1.48 0.778 0.051 1.348 0.066 1.723 0.039-1.602-0.16-3.027-0.664-4.281-1.52-0.16 0.481-0.293 0.801-0.399 0.961-0.132 0.321-0.375 0.493-0.722 0.52-0.239 0.027-0.532-0.067-0.879-0.281-0.348-0.239-0.559-0.481-0.641-0.719 0.082 0.719 0.027 1.305-0.16 1.758-0.426 0.054-1.012-0.16-1.758-0.641 0.504 0.348 0.719 0.895 0.641 1.641-0.11 0.8-0.524 1.121-1.242 0.961 0.293 0.214 0.468 0.546 0.519 1 0.586 0 1.082-0.106 1.481-0.321 0.535-0.238 0.546-0.558 0.039-0.957 0.269 0.16 0.574 0.239 0.922 0.239zm-64.481-3.321 0.199 0.121c0.137 0.078 0.27 0.145 0.403 0.2-0.934 0.214-1.106 0.718-0.52 1.519-0.266-0.051-0.519-0.027-0.762 0.082-0.238 0.16-0.437 0.277-0.597 0.359l-0.684 0.239c0.801 0.32 2 0.402 3.602 0.242l-0.282 0.519h-1.16c-0.426 0-0.73 0.133-0.918 0.399-0.132 0.187-0.175 0.414-0.121 0.68 0.906 0.054 1.813 0.203 2.723 0.441 0.316 0.082 0.598 0.199 0.84 0.359 0.023-0.16 0.039-0.32 0.039-0.48 0.691 0.027 1.133-0.09 1.32-0.359 0.133-0.215 0.227-0.707 0.277-1.481 0.883-0.266 1.497 0 1.84 0.801 0.297-0.051 0.535-0.082 0.723-0.082h0.039c-0.027-0.024-0.039-0.051-0.039-0.078-0.215-0.426-0.242-0.774-0.082-1.039 0.133-0.188 0.348-0.321 0.641-0.403-0.133-0.211-0.239-0.414-0.321-0.597-0.16-0.375-0.226-0.961-0.199-1.762-0.426-0.133-0.906-0.184-1.441-0.16-0.559 0.082-1.039 0.242-1.438 0.48-0.055-0.691-0.121-1.105-0.199-1.238-0.16-0.215-0.563-0.293-1.203-0.242-0.481 0.027-0.774 0.07-0.879 0.121-0.238 0.082-0.371 0.281-0.399 0.601-0.214-0.535-0.652-0.789-1.32-0.761h-0.199c-0.188 0.054-0.336 0.133-0.442 0.242-0.187 0.183-0.253 0.449-0.199 0.797 0.266 0.187 0.52 0.347 0.758 0.48zm-1.039 9.84c0.105 0.266 0.215 0.574 0.32 0.922-0.027-0.375-0.039-0.723-0.039-1.043l-0.281 0.121zm-8.32-0.758c0.132-0.054 0.242-0.121 0.32-0.199 0.105-0.082 0.293-0.293 0.559-0.641l1.761-2c-0.105 0-0.226-0.015-0.359-0.043-0.481-0.05-0.895-0.027-1.242 0.082h-0.039c0.293 0.106 0.558 0.122 0.8 0.04-0.668 0.32-1.187 0.585-1.558 0.8h-0.043c-0.051 0.028-0.094 0.051-0.117 0.078-0.082 0.055-0.16 0.11-0.242 0.161-0.051 0.027-0.094 0.054-0.122 0.082l-0.16 0.117-0.039 0.043c-0.531 0.426-0.773 0.906-0.719 1.437 0.106 0.028 0.508 0.043 1.2 0.043zm7 1.957c0-0.238 0.015-0.449 0.039-0.636l-1.039 0.437c-0.375-0.023-0.879 0.176-1.52 0.602 0.188 0.027 0.387 0.066 0.602 0.117l0.238 0.082c0.027-0.238 0.105-0.426 0.238-0.559 0.321-0.082 0.684-0.093 1.082-0.043h0.36zm48.558-8 0.485 0.043c0.132 0.586-0.016 1.321-0.442 2.199-0.508 1.04-0.789 1.758-0.84 2.161 0.239-0.293 0.547-0.493 0.918-0.602 0.426-0.133 0.762-0.066 1 0.199 0.188 0.215 0.215 0.817 0.082 1.801-0.027 0.109-0.093 0.453-0.203 1.043h0.203c0.371-0.082 0.653-0.254 0.84-0.523 0.106-0.157 0.239-0.465 0.399-0.918 0.054-0.188 0.093-0.414 0.121-0.68 0.027-0.215 0.172-0.375 0.437-0.481 0.055-0.027 0.137-0.054 0.242-0.082-0.054-0.265-0.039-0.492 0.04-0.679 0.453-0.028 0.839 0.16 1.16 0.562-0.426-0.988-0.559-2.043-0.399-3.16 1.012-0.293 1.453 0.094 1.321 1.16 0.105-0.695 0.519-1.242 1.238-1.64-0.613-0.668-0.68-1.403-0.199-2.203 0.347-0.559 0.918-0.747 1.718-0.559 0.453 0.109 1.082 0.293 1.879 0.559 0.215 0.027 0.442-0.024 0.684-0.157 0-0.242 0.023-0.48 0.078-0.722-0.586-0.454-1.426-0.598-2.52-0.438-1.144 0.133-1.867 0.547-2.16 1.238 0.055-0.132 0.067-0.304 0.043-0.519 0-0.106-0.015-0.266-0.043-0.481-0.425-0.16-0.84-0.093-1.242 0.2 0.055-0.637-0.25-0.918-0.918-0.84-0.027 0.215-0.051 0.347-0.082 0.402-0.105 0.481-0.437 0.918-1 1.32l-2 0.957c-0.133 0.215-0.398 0.442-0.797 0.684l-0.043 0.156zm-0.039 0v-0.117c0 0.027-0.011 0.039-0.039 0.039-0.105 0.055-0.199 0.094-0.281 0.121 0.109-0.027 0.215-0.043 0.32-0.043zm-21.32 16.844c0.242 0.051 0.535 0.117 0.883 0.199 0.691 0.266 0.769 0.598 0.238 1 0.055 0.051 0.105 0.09 0.16 0.117 0.32-0.027 0.762-0.05 1.32-0.078 0.692-0.054 1.239 0 1.641 0.16 0.024 0.293-0.066 0.598-0.281 0.918-0.078 0.106-0.145 0.215-0.199 0.321 0.746 0.238 1.504 0.359 2.281 0.359 0.078 0 0.172-0.012 0.277-0.039l-1.238-1.641c-0.027-0.746-0.906-1.171-2.641-1.277-1.039 0-1.855-0.016-2.441-0.039zm8.043 2.559v-0.039c-0.027-0.403-0.016-0.707 0.039-0.922 0.16-0.028 0.371-0.028 0.641 0-0.668-0.692-1.11-0.586-1.321 0.32-0.054 0.215-0.093 0.508-0.121 0.879 0.266-0.051 0.52-0.133 0.762-0.238zm2.039-1.243c-0.027-0.183-0.066-0.41-0.121-0.679-0.028-0.078-0.039-0.16-0.039-0.239-0.082-0.402-0.082-0.707 0-0.921l0.437-0.079c-0.398-0.214-0.746-0.292-1.039-0.242-0.371 0.11-0.574 0.481-0.597 1.121 0.078 0.614 0.117 1.067 0.117 1.36 0.109 0.027 0.215 0.051 0.32 0.082h0.121c0.133-0.11 0.227-0.176 0.278-0.203 0.136-0.078 0.308-0.145 0.523-0.2zm9.437 4.204c0.508-0.348 1.137-0.602 1.883-0.762 0.133-0.027 0.254-0.055 0.36-0.078-0.028-0.055-0.067-0.11-0.121-0.16-0.184-0.161-0.641-0.27-1.36-0.321 0.293-0.535 0.375-1.133 0.242-1.801-0.933 0.028-1.629 0.012-2.082-0.039 0.133-0.668-0.039-1.054-0.519-1.16-0.801-0.16-1.254-0.293-1.36-0.402l-0.16-0.399-0.039 0.079c-0.133 0.16-0.269 0.347-0.402 0.562-0.317-0.187-0.586-0.215-0.801-0.082 1.254 0.215 2.176 0.734 2.762 1.563 0.16 0.211 0.519 0.945 1.078 2.199 0.187 0.293 0.359 0.558 0.519 0.801zm-20.199-6.68c0.348 0.266 0.281 0.586-0.199 0.957 0.055 0.027 0.145 0.043 0.281 0.043h1.84c1.039 0.023 1.613-0.188 1.719-0.641 0.133-0.48-0.028-0.828-0.481-1.043-0.906 0.375-1.933 0.575-3.078 0.602l-0.082 0.082zm-8.16-11.524c0.027 0.028 0.066 0.055 0.121 0.082l0.52-0.242c-0.215 0.055-0.426 0.11-0.641 0.16zm-3.199 0.204c-0.371-0.028-0.735-0.094-1.078-0.204-0.028 0.618 0.011 1.043 0.117 1.282 0.082 0.215 0.226 0.375 0.441 0.48-0.027-0.105-0.039-0.238-0.039-0.398 0.024-0.563 0.211-0.949 0.559-1.16zm-0.481-5h0.161c0.906 0 1.601 0.144 2.082 0.437 0.05 0 0.105-0.012 0.16-0.039-0.028-0.32 0.066-0.574 0.277-0.762 0.348-0.316 0.906-0.371 1.68-0.156 0.136 0.051 0.269 0.106 0.402 0.156 0.106 0 0.211 0.016 0.32 0.043 0.133 0.024 0.305 0.067 0.52 0.117v-0.398c0.051-0.426 0.25-0.707 0.598-0.84 0.535-0.215 0.882-0.039 1.043 0.52 0.105-0.907 0.597-1.266 1.476-1.082 0.11-0.106 0.242-0.211 0.402-0.317 0-0.32-0.015-0.668-0.039-1.043 0.051-0.425 0.332-0.785 0.84-1.078 0.559-0.32 1.133-0.402 1.719-0.242 0.668 0.187 0.988 0.613 0.961 1.281 0.184-0.64 0.387-0.851 0.598-0.64 0.16 0.16 0.296 0.48 0.402 0.961 0.051 0.425 0.094 0.679 0.117 0.757 0.027 0.082 0.254 0.188 0.684 0.321 0.183 0.054 0.476 0.066 0.879 0.039 0.293 0.027 0.453 0.226 0.48 0.601-0.027-0.293 0.078-0.535 0.32-0.718 0.239-0.188 0.504-0.243 0.797-0.161 0.16 0.055 0.348 0.227 0.563 0.52 0.558-0.133 0.984-0.082 1.277 0.16 0.59-0.027 1.094 0.094 1.524 0.359-0.215-0.32-0.293-0.668-0.243-1.039 0.426-0.082 0.989-0.066 1.68 0.039 0.801 0.133 1.336 0.2 1.602 0.2-0.188-0.852-0.039-1.305 0.437-1.36 0.32-0.05 0.59 0.133 0.801 0.559 0.187 0.508 0.309 0.855 0.359 1.043 0.137-0.27 0.297-0.629 0.485-1.082 0.078-0.133 0.172-0.254 0.277-0.36 0.133-0.558 0.723-0.894 1.762-1 1.812-0.187 2.824-0.414 3.039-0.679 0.105-0.188 0.199-0.453 0.281-0.801 0.051-0.188 0.078-0.359 0.078-0.52-0.211-0.054-0.453-0.082-0.719-0.082-0.507 0-0.839 0.055-1 0.161l-0.043-0.918c-0.371-0.079-0.718 0.043-1.039 0.363 0.188-1.176-0.254-1.856-1.32-2.043-1.066-0.211-1.531 0.215-1.398 1.281-0.614-0.773-0.961-1.187-1.039-1.238-0.403-0.32-0.95-0.402-1.641-0.242-0.133 0.293-0.082 0.64 0.16 1.039 0.317 0.453 0.531 0.773 0.641 0.961-0.91-0.961-1.762-1.36-2.563-1.2-0.133 0.614-0.039 1.309 0.281 2.079-0.265-0.317-0.734-0.504-1.402-0.559-0.316-0.027-0.84 0-1.558 0.082l-0.122 0.879c-0.183-0.481-0.664-0.801-1.437-0.961s-1.227-0.027-1.359 0.402c-0.055-0.402-0.336-0.629-0.84-0.679-0.481-0.055-0.817 0.117-1 0.519-0.055-0.668-0.348-1-0.883-1-0.586-0.054-0.84 0.199-0.758 0.758-0.109-0.508-0.613-0.785-1.519-0.84-0.321 0-0.961 0.039-1.922 0.121-0.106 0.293-0.078 0.614 0.082 0.957 0.105 0.348 0.293 0.641 0.558 0.883-0.695-0.402-1.226-0.48-1.601-0.242-0.344 0.242-0.492 0.734-0.438 1.48-0.933-0.32-1.906-0.359-2.922-0.117v0.117c-0.187-0.398-0.718-0.64-1.597-0.718-0.696-0.082-1.297-0.051-1.801 0.082-0.082 0.265-0.094 0.492-0.039 0.679-0.11-0.269-0.43-0.468-0.961-0.601-0.563-0.106-0.934-0.051-1.121 0.16-0.238 0.266-0.16 0.934 0.238 2-0.133-0.266-0.344-0.481-0.637-0.641-0.32-0.105-0.652-0.117-1-0.039-0.082 0.641-0.015 1.188 0.2 1.641 0.398 0.105 0.691 0.426 0.879 0.961-0.426-0.242-0.719-0.563-0.879-0.961l-0.442-0.039c-0.078 0.344-0.066 0.746 0.039 1.199h0.082c1.094 0.051 1.985 0.184 2.68 0.398 0.105 0.028 0.227 0.067 0.359 0.122zm6.961 6.597c0.055 0.16 0.078 0.309 0.078 0.442l0.043 0.039c0.079-0.188 0.184-0.348 0.321-0.481-0.16 0.028-0.309 0.028-0.442 0zm5.52-0.398c0.16 0 0.348-0.016 0.558-0.043 0 0.055 0.016 0.109 0.043 0.16 0.266 0.055 0.571 0.137 0.918 0.242h0.161v-0.121c0-0.32-0.106-0.547-0.321-0.68-0.16-0.105-0.344-0.16-0.558-0.16-0.188-0.293-0.442-0.547-0.762-0.758-0.106-0.082-0.199-0.148-0.277-0.203-0.508 0.403-0.934 0.696-1.282 0.883-0.375 0.211-0.746 0.387-1.121 0.52 0.215 0.105 0.375 0.238 0.481 0.398 0.668-0.238 1.386-0.32 2.16-0.238zm4.601 1.758c-0.214-0.719-0.828-1.039-1.839-0.957 0.183 0.105 0.386 0.199 0.597 0.281 0.481 0.211 0.895 0.437 1.242 0.676zm10.918 24.16h-1.839l0.8 1.082c0.266-0.242 0.746-0.414 1.442-0.52 0.293-0.054 0.636-0.093 1.039-0.121 0.48-0.027 0.89-0.066 1.238-0.121-0.691-0.316-1.371-0.73-2.039-1.238 0.238 0.187 0.293 0.484 0.16 0.879-0.082 0-0.348 0.015-0.801 0.039zm0-1.399c-0.214 0.106-0.371 0.2-0.48 0.282 0.398-0.055 0.719-0.016 0.961 0.117-0.16-0.133-0.32-0.266-0.481-0.399zm-31.918-27.761-0.043-0.039v0.121c0.028-0.028 0.043-0.055 0.043-0.082zm25.239 2.882c0.132-0.082 0.293-0.121 0.48-0.121-0.133-0.054-0.265-0.132-0.398-0.238-0.215-0.187-0.426-0.441-0.641-0.762-0.348-0.586-0.426-1.054-0.242-1.398 0.16-0.348 0.656-0.535 1.48-0.563 0.243-0.027 0.817-0.011 1.719 0.043-0.398-0.242-0.973-0.386-1.719-0.441-1.039-0.055-1.636-0.094-1.797-0.121-0.484-0.133-0.96-0.453-1.441-0.957-0.027-0.028-0.055-0.055-0.082-0.082-0.371 0.508-1.066 0.894-2.078 1.16-0.16 0.055-0.309 0.094-0.441 0.121 0.16 0.184 0.214 0.426 0.16 0.719 0.054-0.27 0.242-0.481 0.558-0.641 0.375-0.215 0.696-0.242 0.961-0.082 0.266 0.16 0.348 0.508 0.242 1.043-0.109 0.586-0.082 0.945 0.079 1.078 0.16 0.106 0.414 0.133 0.761 0.082 0.348-0.027 0.598 0.039 0.758 0.199 0.453 0.454 0.402 1.028-0.16 1.719-0.399 0.535-0.813 0.883-1.238 1.039 0.668-0.211 1.082-0.133 1.238 0.242 0.055 0.079 0.121 0.602 0.199 1.559 0.242 0.082 0.508 0.176 0.801 0.281 0.293 0.106 0.562 0.2 0.801 0.282l0.519-0.321 1-0.562c-0.105-0.239-0.48-0.531-1.121-0.879-0.051-0.027-0.105-0.051-0.156-0.082-0.508-0.293-0.789-0.637-0.844-1.039-0.051-0.371 0.027-0.692 0.242-0.961 0.106-0.129 0.227-0.238 0.36-0.317zm-8.961-1.32c0.054 0.027 0.121 0.039 0.203 0.039 0.824 0.028 1.156-0.187 1-0.64-0.11-0.028-0.215-0.051-0.32-0.079-0.188 0.161-0.387 0.317-0.602 0.481-0.078 0.078-0.172 0.144-0.281 0.199z" inkscape:connector-curvature="0"/>
      <path id="path56" style="fill-rule:evenodd;fill:#414428" d="m60 34.324c0.613-0.106 1.027-0.094 1.238 0.039 0.242 0.136 0.524 0.441 0.84 0.922 0.348 0.613 0.574 0.972 0.684 1.078h0.039c0.215-0.133 0.508-0.305 0.879-0.52-1.145-0.426-1.465-0.734-0.957-0.918 0.933-0.347 1.425-0.586 1.48-0.722 0.078-0.184-0.015-0.438-0.281-0.758-0.215-0.27-0.188-0.52 0.078-0.762 0.16-0.16 0.496-0.16 1 0 0.453 0.133 0.789 0.281 1 0.441l0.883-0.242c-0.133-0.211-0.547-0.664-1.242-1.359-0.453-0.586-0.2-0.852 0.761-0.797l-0.879-0.883c-0.296-0.426-0.269-0.801 0.079-1.117 0.16-0.16 0.414-0.227 0.761-0.203 0.239 0.027 0.449-0.117 0.637-0.438 0.109-0.242 0.109-0.64 0-1.203-0.078-0.449 0.055-0.785 0.402-1 0.293-0.183 0.575-0.238 0.84-0.156 0.238 0.078 0.414 0.25 0.52 0.52 0.027-0.375 0.066-0.75 0.117-1.122 0.027 0.215 0.082 0.399 0.16 0.559l0.082-0.519 0.242 0.082c0.504 0.027 0.797-0.641 0.879-2 0.028-0.614 0-1.629-0.082-3.043l0.238 0.48c0.59 0 0.883-0.359 0.883-1.078 0.184 0.641 0.707 1.254 1.559 1.84 0.851 0.586 1.519 0.758 2 0.519-0.028-0.293-0.067-0.574-0.117-0.84-0.164-0.132-0.325-0.265-0.485-0.398-0.664-0.617-1.011-1.16-1.039-1.641-0.027-0.453 0.094-0.773 0.36-0.961 0.132-0.109 0.441-0.226 0.921-0.359 0.211-0.105 0.387-0.215 0.52-0.32-0.027-0.242-0.121-0.481-0.281-0.719-0.239-0.402-0.559-0.695-0.957-0.883 0.426 0.028 0.758-0.133 1-0.48 0.238-0.321 0.343-0.692 0.316-1.117v-0.043c-0.051-0.454-0.226-0.786-0.519-1 0.718 0.16 1.132-0.161 1.242-0.957 0.078-0.75-0.133-1.297-0.641-1.641 0.746 0.48 1.332 0.691 1.762 0.641 0.183-0.454 0.238-1.043 0.156-1.762 0.082 0.242 0.293 0.48 0.641 0.719 0.347 0.214 0.64 0.308 0.883 0.281 0.343-0.027 0.586-0.199 0.718-0.52 0.106-0.16 0.239-0.48 0.399-0.961 1.254 0.856 2.679 1.36 4.281 1.52l1.238-0.039c0.082-0.426 0.028-0.824-0.16-1.199-0.211-0.403-0.516-0.668-0.918-0.801 1.36 0.105 2.387 0.105 3.082 0 0.531-1.442-2.226-2.453-8.281-3.039-6.399-0.348-9.852-0.535-10.359-0.563 0.132-0.105 0.293-0.293 0.48-0.558 0.211-0.266 0.371-0.442 0.48-0.52l-0.683-0.078c0.457-0.187 0.574-0.562 0.363-1.121-0.535-0.106-0.976-0.16-1.32-0.16 0.078 0.293 0.105 0.613 0.078 0.961-0.051 0.691-0.25 1.172-0.598 1.437l-1.199 0.242c-0.402 0.051-0.75-0.175-1.043-0.679-0.183-0.293-0.305-0.629-0.359-1-0.106 0.078-0.211 0.117-0.321 0.117-0.023 0.293 0 0.707 0.082 1.242 0.106 0.586 0.161 1 0.161 1.238 0 0.43-0.121 0.829-0.36 1.2-0.054 0.082-0.336 0.402-0.84 0.961-0.187 0.214-0.293 0.468-0.32 0.761-0.027 0.184-0.039 0.332-0.039 0.438 0.664-0.078 0.973 0.203 0.918 0.84 0.398-0.293 0.813-0.36 1.242-0.2 0.024 0.215 0.039 0.375 0.039 0.481 0.028 0.215 0.012 0.387-0.039 0.519 0.289-0.691 1.012-1.105 2.156-1.238 1.094-0.16 1.934-0.016 2.52 0.438-0.051 0.242-0.078 0.48-0.078 0.722 0.105-0.082 0.226-0.176 0.359-0.281 0.344-0.32 0.68-0.426 1-0.32 0.399 0.16 0.797 0.867 1.199 2.121 0.348 1.172 0.399 2.265 0.161 3.281-0.375 1.465-1.493 3.266-3.36 5.398-0.48 0.508-1.308 1.215-2.48 2.122-0.403 0.316-0.735 0.664-1 1.039-0.082 0.105-0.215 0.304-0.403 0.597 0.27 0 0.508 0.028 0.723 0.082 0.184 0.696-0.066 1.68-0.762 2.961-0.507 0.934-1.105 1.801-1.8 2.598-0.024 0.027-0.719 0.668-2.079 1.922-0.718 0.664-1.214 1.293-1.48 1.879zm5.121-32.442c0.051-0.05 0.117-0.105 0.199-0.156-0.082 0.023-0.16 0.051-0.242 0.078 0 0.028 0.016 0.055 0.043 0.078zm-11.723-1.558c-0.476-0.239-1.117-0.348-1.918-0.321-1.468 0.028-2.199 0.586-2.199 1.68-2.855 0.133-5.988 0.629-9.402 1.481-0.719-0.637-1.453-0.825-2.199-0.559-0.078 0.16-0.078 0.332 0 0.519-0.215-0.558-0.707-0.906-1.481-1.039-0.613-0.082-1.277-0.039-2 0.118-0.187 0.535-0.265 0.843-0.238 0.921-0.375-0.347-1.016-0.585-1.922-0.718-1.094-0.16-1.25-0.121-0.48 0.117-0.664-0.024-1.172-0.039-1.52-0.039-0.613 0-1.133 0.039-1.559 0.121 0.239 0.238 0.68 0.559 1.321 0.957 0.64 0.375 1.094 0.707 1.359 1-0.613 0.375-1.348 0.508-2.199 0.402-0.32-0.027-1.016-0.199-2.082-0.519-0.691-0.321-1.238-0.52-1.641-0.602-0.769-0.16-0.957 0.188-0.558 1.039-0.746-0.531-1.586-0.597-2.52-0.199-0.055 0.375-0.027 0.68 0.078 0.922-0.933-0.32-1.785-0.387-2.558-0.203 0.16 0.242 0.308 0.402 0.441 0.48-0.562-0.293-1.519-0.425-2.883-0.398-1.011 0.055-1.957 0.16-2.84 0.32 0.055 0.641 0.641 1.012 1.762 1.121-2.16-0.136-3.586 0.067-4.281 0.598 0.348 0.375 0.801 0.586 1.359 0.641-0.25 0.074-0.449 0.16-0.597 0.261 0.07-0.047 0.164-0.078 0.281-0.101h0.199c0.664-0.028 1.106 0.226 1.32 0.758 0.028-0.317 0.161-0.52 0.399-0.598 0.105-0.055 0.398-0.094 0.879-0.121 0.64-0.051 1.043 0.027 1.203 0.242 0.078 0.133 0.144 0.547 0.199 1.238 0.399-0.238 0.879-0.398 1.438-0.48 0.535-0.028 1.015 0.027 1.441 0.16-0.027 0.801 0.039 1.387 0.199 1.762 0.082 0.183 0.188 0.386 0.321 0.597 0.402-0.133 0.972-0.183 1.718-0.16-0.105-0.453-0.117-0.851-0.039-1.199l0.442 0.039c0.16 0.402 0.453 0.723 0.879 0.961-0.188-0.531-0.481-0.852-0.879-0.961-0.215-0.453-0.282-1-0.2-1.637 0.348-0.082 0.68-0.066 1 0.039 0.293 0.16 0.504 0.371 0.637 0.641-0.398-1.066-0.476-1.734-0.238-2 0.187-0.215 0.558-0.27 1.121-0.16 0.531 0.133 0.851 0.332 0.961 0.597-0.055-0.183-0.043-0.41 0.039-0.679 0.504-0.133 1.105-0.16 1.801-0.078 0.879 0.078 1.41 0.316 1.597 0.718v-0.121c1.016-0.238 1.989-0.199 2.922 0.121-0.054-0.746 0.094-1.242 0.438-1.48 0.375-0.242 0.906-0.16 1.601 0.238-0.265-0.238-0.453-0.531-0.558-0.879-0.16-0.347-0.188-0.668-0.082-0.961 0.961-0.078 1.601-0.117 1.922-0.117 0.906 0.051 1.41 0.332 1.519 0.84-0.082-0.562 0.172-0.812 0.758-0.762 0.535 0 0.828 0.332 0.883 1 0.183-0.398 0.519-0.574 1-0.519 0.504 0.054 0.785 0.281 0.84 0.679 0.132-0.425 0.586-0.558 1.359-0.398s1.25 0.48 1.437 0.961l0.122-0.883c0.718-0.078 1.242-0.105 1.558-0.078 0.668 0.051 1.137 0.238 1.402 0.559-0.32-0.774-0.414-1.465-0.281-2.082 0.801-0.157 1.653 0.242 2.563 1.203-0.11-0.188-0.321-0.508-0.641-0.961-0.242-0.399-0.293-0.746-0.16-1.039 0.691-0.16 1.238-0.082 1.641 0.238 0.078 0.055 0.425 0.469 1.039 1.242-0.133-1.066 0.332-1.496 1.398-1.281 1.066 0.187 1.508 0.867 1.32 2.039 0.321-0.316 0.668-0.438 1.039-0.359l0.043 0.921c0.161-0.109 0.493-0.16 1-0.16 0.266 0 0.504 0.028 0.719 0.082-0.027-0.109-0.055-0.203-0.082-0.281-0.078-0.215-0.305-0.519-0.68-0.922-0.05-0.078-0.039-0.211 0.04-0.398-0.079-0.242-0.516-0.547-1.317-0.918-0.855-0.348-1.359-0.563-1.519-0.641-0.614-0.32-1-0.562-1.161-0.722-0.402-0.372-0.468-0.758-0.203-1.161 0.27-0.425 0.883-0.652 1.84-0.679h0.32zm1.922 0.601 0.16 0.16c0.184 0.133 0.387 0.227 0.598 0.278 0.27 0.054 0.762 0.027 1.481-0.078 0.16-0.028 0.308-0.055 0.441-0.082-0.027-0.079-0.039-0.145-0.039-0.2-0.508-0.078-1.133-0.105-1.883-0.078h-0.758zm-44.242 11.438c-0.023 0-0.223 0.054-0.598 0.16-1.359 0.137-2.441 0.309-3.242 0.519-1.519 0.403-1.679 1.016-0.476 1.84-0.563 0.082-0.989 0.149-1.282 0.203-0.507 0.079-0.921 0.227-1.242 0.438 0.082 0.242 0.203 0.414 0.364 0.519 0.023 0.028 0.05 0.055 0.078 0.082h0.039c0.347-0.109 0.761-0.132 1.242-0.082 0.133 0.028 0.25 0.043 0.359 0.043l0.2-0.242c0.773-0.746 1.625-1.211 2.558-1.398 1.043-0.215 2.082-0.293 3.121-0.242-0.054-0.266-0.011-0.493 0.121-0.68 0.188-0.266 0.492-0.399 0.918-0.399h1.16l0.282-0.519c-1.602 0.16-2.801 0.078-3.602-0.242zm38.281 17c-0.691-0.239-1.32-0.586-1.879-1.039-0.292-0.239-1.054-0.735-2.281-1.481-0.027-0.027-0.054-0.039-0.078-0.039v0.481c0 0.691-0.082 1.679-0.242 2.961-0.266 1.144-0.375 1.945-0.32 2.398l-1.598-3.719c-0.027-0.375 0.133-0.867 0.477-1.48 0.347-0.641 0.55-1.11 0.601-1.403-0.266-0.21-0.492-0.425-0.68-0.64-0.082 0.16-0.171 0.308-0.281 0.441-0.746 0.934-1.652 1.614-2.719 2.039 0.453 0.215 0.614 0.563 0.481 1.043-0.106 0.453-0.68 0.664-1.719 0.641h-1.844c-0.265 0.023-0.425 0.051-0.476 0.078 0.183 0.027 0.543 0.055 1.078 0.082 0.586 0.023 1.398 0.039 2.441 0.039 1.735 0.106 2.614 0.535 2.641 1.281l1.238 1.641c0.133 0 0.254-0.016 0.36-0.043 0.214-0.027 0.414-0.066 0.601-0.117 0.028-0.375 0.067-0.668 0.117-0.883 0.215-0.906 0.657-1.012 1.321-0.316 0.027 0.05 0.066 0.105 0.121 0.156v-0.117c0-0.293-0.043-0.75-0.121-1.36 0.027-0.64 0.226-1.015 0.601-1.121 0.293-0.051 0.641 0.028 1.039 0.242 0.082 0.079 0.16 0.145 0.239 0.2 0.484 0.371 0.789 0.734 0.921 1.078-0.023-0.188-0.039-0.535-0.039-1.043zm-9.039-10.239c-0.027-0.535-0.039-0.867-0.039-1 0.051-0.558 0.211-0.96 0.481-1.199 0.105 0.348 0.133 0.785 0.078 1.321l-0.36 0.957c0.028 0.027 0.067 0.043 0.122 0.043 1.011-0.082 1.625 0.238 1.839 0.957 0.481 0.402 0.825 0.843 1.039 1.32h0.079c0.402-0.024 0.906 0.027 1.519 0.16-0.078-0.957-0.144-1.48-0.199-1.559-0.16-0.375-0.574-0.453-1.238-0.242 0.425-0.156 0.839-0.504 1.238-1.039 0.559-0.691 0.613-1.265 0.16-1.719-0.16-0.16-0.414-0.226-0.762-0.199-0.343 0.051-0.597 0.024-0.757-0.082-0.161-0.133-0.188-0.492-0.082-1.078 0.109-0.535 0.027-0.883-0.239-1.043-0.265-0.16-0.586-0.133-0.961 0.082-0.32 0.16-0.504 0.371-0.558 0.641 0.05-0.293 0-0.535-0.16-0.719-1.04 0.316-1.68 0.547-1.922 0.68-0.239 0.16-0.571 0.386-1 0.679 0.109 0.028 0.214 0.051 0.32 0.079 0.16 0.453-0.172 0.668-1 0.64-0.078 0-0.145-0.012-0.199-0.039l-0.121 0.121c0.082 0.051 0.175 0.117 0.281 0.199 0.32 0.215 0.574 0.465 0.762 0.758 0.211 0 0.398 0.055 0.558 0.16 0.215 0.133 0.321 0.36 0.321 0.68v0.16c0.242 0.106 0.507 0.199 0.8 0.281zm19.321 15.282c0.027 0 0.05-0.016 0.082-0.043-0.161-0.239-0.403-0.387-0.723-0.438 0.055-0.109 0.895-1.281 2.52-3.519 0.027-0.055 0.066-0.11 0.121-0.16-1.149 0-2.801 0.078-4.961 0.238 0.347-0.774 1.16-1.266 2.441-1.481-0.535 0.055-1.082 0.082-1.641 0.082l-2.601 0.801h-0.719l0.039 0.078 0.082 0.16 0.16 0.403c0.106 0.105 0.559 0.238 1.36 0.398 0.48 0.106 0.652 0.492 0.519 1.16 0.453 0.051 1.149 0.067 2.082 0.039 0.133 0.668 0.051 1.266-0.242 1.801 0.719 0.055 1.176 0.16 1.36 0.321 0.054 0.05 0.093 0.105 0.121 0.16zm3.238-6.602c-0.906 0.559-1.984 0.934-3.238 1.121h2.8c0.184-0.402 0.332-0.773 0.438-1.121zm1.68-1.519c-0.079 0.078-0.145 0.16-0.2 0.238 0.055 0 0.106-0.012 0.161-0.039 0-0.051 0.015-0.121 0.039-0.199zm-39.481 0.679 0.281 0.602c0-0.188 0.016-0.442 0.039-0.762l-0.32 0.16zm0.242-8.16c-0.215-0.105-0.359-0.265-0.441-0.48-0.106-0.239-0.145-0.664-0.117-1.282h-0.082c-1.254-0.343-2.332-0.957-3.239-1.839 0 0.027-0.015 0.054-0.043 0.082v-0.121c-0.293-0.266-0.558-0.575-0.796-0.918-0.297-0.403-0.497-0.68-0.602-0.84h-0.039c-0.133 0.078-0.242 0.172-0.32 0.277-0.106 0.16-0.172 0.32-0.2 0.481-0.054-0.266-0.121-0.493-0.203-0.68-0.343-0.801-0.957-1.067-1.84-0.801-0.05 0.777-0.144 1.27-0.277 1.481-0.187 0.269-0.629 0.386-1.32 0.363 0 0.156-0.016 0.316-0.039 0.476 0.238 0.243 0.398 0.536 0.476 0.883 0.028 0.051 0.043 0.305 0.043 0.758 0.051 0 0.117 0.016 0.199 0.043 0.028 0.398 0.188 0.691 0.481 0.879 0.371 0.266 0.598 0.492 0.68 0.68 0.187 0.32 0.132 0.773-0.161 1.359-0.027 0.027-0.039 0.055-0.039 0.082 0.774-0.746 1.719-1.32 2.84-1.719 1.25-0.429 1.758-0.109 1.52 0.957 1.066 0.403 2.238 1.215 3.519 2.442 0.215 0.187 0.399 0.375 0.559 0.558 0.027-0.347 0.043-0.652 0.043-0.918 0.023-0.855-0.082-1.535-0.32-2.039-0.11-0.031-0.204-0.086-0.282-0.164zm-4.761-2.68c-0.825 0.586-1.774 0.934-2.84 1.04-0.371-0.532-0.133-0.946 0.722-1.239 0.532-0.215 1.161-0.336 1.879-0.359l0.239 0.558z" inkscape:connector-curvature="0"/>
      <g id="g58">
        <g id="g60">
          <g id="g66">
            <path id="path74" style="fill-rule:evenodd;fill:url(#linearGradient68)" d="m74.078 32.324 1-0.239c-0.449-0.453-0.906-0.773-1.355-0.961-0.27-0.132-0.535-0.214-0.801-0.242-0.723-0.078-1.375-0.117-1.961-0.117-1.441 0.027-2.453 0.32-3.039 0.879 0.078 0.855 0.64 1.332 1.68 1.441 0.371 0.028 0.933 0 1.679-0.082 0.242-0.027 0.508-0.066 0.801-0.117l1.996-0.562z" inkscape:connector-curvature="0"/>
          </g>
        </g>
      </g>
      <g id="g76">
        <g id="g78">
          <g id="g84">
            <path id="path92" style="fill-rule:evenodd;fill:url(#linearGradient86)" d="m88.879 31.843c-0.024-0.453-0.199-0.918-0.52-1.398-0.023-0.055-0.066-0.121-0.117-0.199-0.133-0.188-0.281-0.375-0.441-0.563-0.215-0.211-0.453-0.398-0.719-0.559-0.293-0.16-0.652-0.265-1.082-0.32-0.508-0.055-0.879-0.094-1.121-0.121l-0.039-1.156c-0.211-0.082-0.547-0.067-1 0.039-0.504 0.105-0.867 0.133-1.078 0.078-0.27-0.078-0.547-0.184-0.84-0.316-0.242-0.137-0.496-0.282-0.762-0.442-0.613-0.426-1.051-0.84-1.32-1.242-0.028-0.027-0.172-0.316-0.438-0.879-0.187-0.375-0.402-0.625-0.64-0.762-0.348-0.183-0.801-0.238-1.36-0.156-0.507 0.078-0.949 0.227-1.32 0.438-0.402 0.265-0.695 0.441-0.883 0.519l-0.039 0.039c-0.051 0.028-0.094 0.043-0.121 0.043-0.293 0.133-0.625 0.211-1 0.238-0.984-0.078-1.785-0.105-2.398-0.078-0.239 0-0.453 0.012-0.641 0.039-1.332 0.161-1.852 0.84-1.559 2.039 0.133 0.536 0.454 0.922 0.961 1.161 0.321 0.105 0.598 0.199 0.84 0.281 0.266 0.105 0.492 0.211 0.68 0.32 0.531 0.266 1.215 0.641 2.039 1.117 0.16 0.082 0.332 0.149 0.519 0.2 0.586 0.214 1.176 0.32 1.762 0.32 2.531 0 4.746 0.187 6.637 0.562l0.801 0.68 0.48 0.438 0.52 0.48c0.109 0.32 0.496 0.481 1.16 0.481 0.375 0 0.867-0.024 1.48-0.079 0.614 0.028 1 0 1.16-0.082 0.215-0.105 0.348-0.398 0.399-0.879v-0.281z" inkscape:connector-curvature="0"/>
          </g>
        </g>
      </g>
      <g id="g94">
        <g id="g96">
          <g id="g102">
            <path id="path110" style="fill-rule:evenodd;fill:url(#linearGradient104)" d="m81.801 16.683c-0.266 0.082-0.653 0.402-1.16 0.961-0.375 0.398-0.895 0.32-1.563-0.242-0.105-0.106-0.437-0.559-1-1.36-0.398-0.613-0.797-0.933-1.199-0.957-0.613-0.054-1.09 0.414-1.438 1.399-0.187 0.508-0.281 0.773-0.281 0.801-0.027 0.05-0.082 0.105-0.16 0.16-0.133 0.105-0.309 0.215-0.52 0.32-0.48 0.133-0.785 0.25-0.918 0.359-0.269 0.184-0.386 0.508-0.363 0.958 0.028 0.48 0.375 1.027 1.043 1.64 0.16 0.137 0.32 0.27 0.481 0.402 0.398 0.348 0.8 0.614 1.199 0.801 0.32 0.133 0.707 0.199 1.16 0.199 0.051 0 0.441-0.015 1.16-0.042h0.078c0.696 0 1.789 0.093 3.282 0.281h0.199c1.281 0.082 2.308-0.078 3.082-0.481l2.597-0.398c0.454 0.105 0.817-0.055 1.082-0.481 0.239-0.425 0.282-0.867 0.118-1.32-0.184-0.426-0.516-0.535-1-0.32-0.157 0.109-0.305 0.187-0.438 0.242-0.32 0.184-0.562 0.293-0.719 0.32-0.668 0.133-1.359-0.054-2.082-0.562-0.586-0.426-1.039-0.973-1.359-1.641-0.105-0.211-0.227-0.48-0.359-0.797-0.161-0.215-0.442-0.293-0.84-0.242h-0.082z" inkscape:connector-curvature="0"/>
          </g>
        </g>
      </g>
      <path id="path112" style="fill-rule:evenodd;fill:#695d3f" d="m64.559 26.285c-0.024 0.078-0.039 0.148-0.039 0.199-0.055 0.027-0.106 0.039-0.161 0.039-0.425 0.508-0.918 0.934-1.48 1.281-0.106 0.348-0.254 0.719-0.441 1.121h-2.797c-0.188 0.024-0.364 0.051-0.52 0.078-1.281 0.215-2.094 0.707-2.441 1.481 2.16-0.16 3.812-0.238 4.961-0.238-0.055 0.05-0.094 0.105-0.121 0.16-1.625 2.238-2.465 3.41-2.52 3.519 0.32 0.051 0.559 0.199 0.719 0.438 0.082 0 0.176-0.012 0.281-0.039 0.266-0.586 0.762-1.215 1.48-1.879 1.36-1.254 2.055-1.895 2.082-1.922 0.692-0.797 1.293-1.664 1.797-2.598 0.696-1.281 0.95-2.265 0.762-2.961-0.215-0.054-0.453-0.082-0.719-0.082-0.082 0.16-0.187 0.364-0.32 0.602-0.16 0.293-0.336 0.558-0.523 0.801zm-19.438 0.519c-0.402-0.265-0.762-0.519-1.082-0.758-0.051 0.293-0.254 0.758-0.601 1.399-0.344 0.613-0.504 1.105-0.477 1.48l1.598 3.719c-0.051-0.453 0.054-1.254 0.32-2.398 0.16-1.282 0.242-2.27 0.242-2.961v-0.481zm-4.641-7.601 0.36-0.957c0.055-0.536 0.027-0.973-0.078-1.321-0.27 0.239-0.43 0.641-0.481 1.199 0 0.133 0.012 0.469 0.039 1 0.055 0.028 0.106 0.051 0.16 0.079zm-19.921-3.079-0.239-0.558c-0.718 0.023-1.347 0.144-1.879 0.359-0.855 0.293-1.093 0.707-0.722 1.239 1.066-0.106 2.015-0.454 2.84-1.04z" inkscape:connector-curvature="0"/>
      <g id="g114">
        <g id="g116">
          <g id="g122">
            <path id="path130" style="fill-rule:evenodd;fill:url(#linearGradient124)" d="m59.641 28.925c1.254-0.187 2.332-0.562 3.238-1.121 0.562-0.347 1.055-0.773 1.48-1.281 0.055-0.078 0.121-0.16 0.203-0.238 0.184-0.243 0.36-0.508 0.516-0.801 0.137-0.238 0.242-0.442 0.32-0.602 0.188-0.293 0.321-0.492 0.403-0.597 0.265-0.375 0.597-0.719 1-1.039 1.172-0.911 2-1.614 2.48-2.122 1.867-2.132 2.985-3.933 3.36-5.398 0.238-1.016 0.187-2.109-0.161-3.281-0.402-1.254-0.8-1.961-1.199-2.121-0.32-0.106-0.652 0-1 0.32-0.133 0.105-0.254 0.199-0.359 0.281-0.242 0.133-0.469 0.184-0.684 0.16-0.797-0.269-1.426-0.453-1.879-0.562-0.8-0.184-1.371 0-1.718 0.562-0.481 0.797-0.414 1.532 0.199 2.2 0.133 0.16 0.293 0.304 0.48 0.441 0.293 0.184 0.469 0.316 0.52 0.398 0.082 0.079 0.082 0.293 0 0.641l-0.442 0.758c-0.293 0.375-0.664 0.723-1.117 1.043-0.508 0.316-0.972 0.504-1.402 0.558-0.133 0.028-0.399 0.012-0.801-0.039-0.238-0.027-0.437-0.043-0.598-0.043-0.105 0.028-0.187 0.055-0.242 0.082-0.265 0.106-0.41 0.266-0.437 0.481-0.028 0.266-0.067 0.492-0.121 0.68-0.16 0.453-0.293 0.761-0.399 0.918-0.187 0.269-0.469 0.441-0.84 0.523h-0.203c-0.16-0.027-0.398-0.082-0.718-0.16-0.426-0.133-0.719-0.149-0.879-0.043l-0.082 0.082c-0.051 0.078-0.094 0.16-0.118 0.238-0.054 0.11-0.093 0.215-0.121 0.321-0.082 0.347-0.242 0.585-0.48 0.718-0.188 0.11-0.375 0.176-0.559 0.203-0.109 0.024-0.203 0.039-0.281 0.039-0.16 0-0.32-0.015-0.48-0.039-0.106-0.027-0.215-0.054-0.321-0.082-0.293-0.078-0.531-0.199-0.719-0.359-0.187-0.16-0.332-0.359-0.441-0.602-0.027-0.105 0-0.652 0.082-1.64 0.051-0.692-0.187-1.012-0.719-0.957-0.347 0.027-0.629 0.238-0.84 0.64-0.214 0.481-0.374 0.825-0.484 1.039-0.238 0.426-0.437 0.708-0.598 0.84-0.16 0.133-0.441 0.239-0.839 0.321-0.719 0-1.2 0.093-1.442 0.281-0.078 0.051-0.121 0.133-0.121 0.238 0 0.133-0.012 0.227-0.039 0.281-0.316 0.508-0.574 0.84-0.758 1-0.269 0.293-0.64 0.442-1.121 0.442-0.238 0-0.547-0.055-0.918-0.16-0.187-0.028-0.375-0.067-0.562-0.121-0.239-0.082-0.504-0.172-0.801-0.282-0.289-0.105-0.559-0.199-0.797-0.281-0.613-0.133-1.121-0.184-1.52-0.156h-0.082c-0.453 0.051-0.734 0.144-0.839 0.277-0.106 0.133-0.161 0.43-0.161 0.883-0.05 0.984 0.161 1.812 0.641 2.48 0.082 0.079 0.16 0.161 0.242 0.239 0.184 0.215 0.41 0.426 0.68 0.64 0.32 0.239 0.68 0.493 1.078 0.758 0.027 0 0.055 0.016 0.082 0.043 1.227 0.746 1.985 1.238 2.277 1.481 0.563 0.453 1.188 0.8 1.883 1.039 0.508 0.187 1.051 0.32 1.641 0.398 0.293 0.055 0.851 0.082 1.68 0.082h0.281c0.238 0.027 0.531 0.039 0.879 0.039h1.039l2.601-0.801c0.559 0 1.106-0.023 1.641-0.078 0.156-0.031 0.328-0.058 0.516-0.082z" inkscape:connector-curvature="0"/>
          </g>
        </g>
      </g>
      <g id="g132">
        <g id="g134">
          <g id="g140">
            <path id="path148" style="fill-rule:evenodd;fill:url(#linearGradient142)" d="m80.559 13.164 0.121-0.079c-0.242-0.347-0.758-0.519-1.559-0.519-0.695 0-1.269 0.105-1.723 0.316 0.028 0.11 0.067 0.203 0.122 0.282 0.16 0.293 0.425 0.468 0.8 0.519h1.36l0.879-0.519z" inkscape:connector-curvature="0"/>
          </g>
        </g>
      </g>
      <g id="g150">
        <g id="g152">
          <g id="g158">
            <path id="path166" style="fill-rule:evenodd;fill:url(#linearGradient160)" d="m65.32 1.726c-0.082 0.051-0.148 0.106-0.199 0.156-0.348 0.27-0.48 0.668-0.402 1.203 0 0.106 0.027 0.211 0.082 0.317 0.051 0.375 0.172 0.707 0.359 1 0.293 0.508 0.641 0.734 1.039 0.683l1.199-0.242c0.348-0.265 0.547-0.746 0.602-1.441 0.027-0.344 0-0.664-0.078-0.957-0.055-0.215-0.149-0.403-0.281-0.563-0.403-0.531-1.094-0.613-2.082-0.238-0.079 0.027-0.161 0.055-0.239 0.082z" inkscape:connector-curvature="0"/>
          </g>
        </g>
      </g>
      <g id="g168">
        <g id="g170">
          <g id="g176">
            <path id="path184" style="fill-rule:evenodd;fill:url(#linearGradient178)" d="m58 1.203c-0.133 0.027-0.281 0.054-0.441 0.082-0.719 0.105-1.211 0.132-1.481 0.082-0.211-0.055-0.414-0.149-0.598-0.282l-0.16-0.16-0.32-0.199c-0.375-0.242-0.906-0.375-1.602-0.402h-0.32c-0.957 0.027-1.57 0.254-1.84 0.679-0.265 0.403-0.199 0.789 0.203 1.161 0.161 0.16 0.547 0.402 1.161 0.718 0.16 0.082 0.664 0.293 1.519 0.641 0.801 0.375 1.238 0.68 1.317 0.922-0.079 0.187-0.09 0.32-0.04 0.398 0.375 0.403 0.602 0.707 0.68 0.922 0.027 0.078 0.055 0.172 0.082 0.277 0 0.161-0.027 0.336-0.082 0.52-0.078 0.348-0.172 0.613-0.277 0.801-0.215 0.269-1.227 0.496-3.043 0.679-1.039 0.11-1.625 0.442-1.758 1-0.082 0.243-0.082 0.497 0 0.762 0.027 0.133 0.199 0.36 0.52 0.68 0.214 0.215 0.253 0.414 0.121 0.601-0.11 0.133-0.364 0.266-0.762 0.399-0.371 0.105-0.602 0.281-0.68 0.519 1.68 1.254 3.215 1.934 4.602 2.039 1.09 0.082 2.199-0.16 3.32-0.718 0.156-0.078 0.41-0.215 0.758-0.399 0.082-0.027 0.172-0.066 0.281-0.121 0.024 0 0.039-0.012 0.039-0.039 0.028 0 0.055-0.016 0.078-0.039 0.403-0.242 0.668-0.469 0.801-0.684l2-0.957c0.563-0.402 0.895-0.839 1-1.32 0.027-0.055 0.055-0.187 0.082-0.402 0-0.106 0.012-0.25 0.039-0.438 0.028-0.293 0.133-0.547 0.321-0.761 0.507-0.559 0.785-0.879 0.839-0.961 0.243-0.371 0.36-0.77 0.36-1.2 0-0.238-0.051-0.652-0.16-1.238-0.079-0.535-0.106-0.949-0.079-1.242 0.106 0 0.211-0.039 0.321-0.117-0.055-0.11-0.082-0.215-0.082-0.321-0.082-0.535 0.054-0.933 0.402-1.199-0.027-0.027-0.043-0.054-0.043-0.082-0.051-0.293-0.144-0.465-0.281-0.519-0.051-0.028-0.387-0.039-1-0.039-2.211 0-3.68-0.043-4.399-0.122-0.32-0.054-0.785-0.027-1.398 0.079z" inkscape:connector-curvature="0"/>
          </g>
        </g>
      </g>
      <path id="path186" style="fill-rule:evenodd;fill:#939865" d="m38.602 35.484c-0.215 0.48-0.387 0.84-0.524 1.082-0.183 0.476-0.25 0.851-0.199 1.117l-3.277 3.481c0.265 0 0.476 0.066 0.636 0.199 0.188 0.16 0.297 0.469 0.321 0.922 0.027 0.371 0.242 0.586 0.64 0.64 0.426 0.051 0.707-0.043 0.84-0.281 0.082-0.105 0.16-0.414 0.242-0.918 0.024-0.32 0.211-0.934 0.559-1.844 0.082-0.183 0.172-0.453 0.281-0.797 0.106-0.242 0.348-0.293 0.719-0.16 0.027 0.16 0.015 0.481-0.039 0.957-0.028 0.403 0 0.707 0.078 0.922 0.16 0.481 0.519 0.785 1.082 0.922 0.664 0.184 1.094 0.383 1.277 0.598 0.137 0.16 0.282 0.468 0.442 0.922 0.132 0.398 0.32 0.703 0.558 0.918 0.215 0.16 0.668 0.386 1.364 0.679 0.558 0.215 0.918 0.481 1.078 0.801 0.132 0.32 0.187 0.867 0.16 1.641-0.051 0.691-0.051 1.199 0 1.519 0.187-0.16 0.332-0.387 0.441-0.68 0.239-0.535 0.36-1.16 0.36-1.878 0.16 0.265 0.464 0.277 0.918 0.039 0.429-0.266 0.734-0.575 0.921-0.922 0.184-0.399 0.305-0.864 0.36-1.399 0.051-0.586-0.016-1.054-0.199-1.398l0.558-0.082-1.519-0.602c0.027 0.215 0.011 0.481-0.039 0.801-1.336 0.215-2.653 0.027-3.961-0.559-1.254-0.558-2.321-1.398-3.2-2.519-0.425-0.586-0.679-0.949-0.761-1.082-0.215-0.426-0.305-0.852-0.281-1.277 0.027-0.243 0.109-0.481 0.242-0.723 0.078-0.133 0.199-0.332 0.359-0.598-0.133-0.133-0.277-0.281-0.437-0.441zm15.16 9.441 1.16 1.641c0.078-0.16 0.199-0.254 0.355-0.281 0.243-0.082 0.469-0.055 0.684 0.078 0.078-0.184 0.133-0.426 0.16-0.719 0.051-0.348 0.067-0.652 0.039-0.918-0.055 0-0.094-0.016-0.121-0.043-0.348 0.055-0.758 0.094-1.238 0.121-0.403 0.028-0.746 0.067-1.039 0.121zm-1.563-14.32c0.133-0.242 0.293-0.492 0.481-0.762-0.825 0-1.387-0.027-1.68-0.078-0.586-0.082-1.133-0.215-1.641-0.402 0 0.508 0.016 0.855 0.039 1.043-0.132-0.348-0.437-0.707-0.918-1.082-0.082-0.051-0.16-0.121-0.242-0.2l-0.437 0.079c-0.082 0.214-0.082 0.523 0 0.921 0.078 0.133 0.16 0.266 0.238 0.399l0.84 0.32c1.254-0.211 2.359-0.293 3.32-0.238zm1.16 13.758c0.453-0.024 0.719-0.039 0.801-0.039 0.133-0.395 0.078-0.692-0.16-0.879h-0.039c-0.481 0.027-0.801 0.16-0.961 0.398 0.105 0.242 0.227 0.414 0.359 0.52zm-28.199-13.278c0.133-0.054 0.266-0.121 0.399-0.203 1.043-0.558 1.839-0.879 2.402-0.957 0.613-0.082 1.266-0.082 1.961 0 0.371 0.051 1 0.172 1.879 0.36h0.078c-1.145-0.641-2.094-1.133-2.84-1.481-1.973-0.961-3.652-1.387-5.039-1.281-0.055-0.027-0.121-0.051-0.199-0.078l-1.242 0.519c-0.161 0.586 0.296 1.332 1.363 2.239 0.504 0.347 0.918 0.64 1.238 0.882zm31.36-10c-0.055-0.109-0.122-0.203-0.2-0.281-0.16-0.16-0.441-0.215-0.84-0.16 0.188 0.16 0.426 0.281 0.719 0.359 0.11 0.028 0.215 0.055 0.321 0.082z" inkscape:connector-curvature="0"/>
      <g id="g188">
        <g id="g190">
          <g id="g196">
            <path id="path204" style="fill-rule:evenodd;fill:url(#linearGradient198)" d="m48.199 42.484 1.879 0.801c0.668 0 1.695-0.161 3.082-0.481 0.348-0.078 0.719-0.172 1.121-0.281 0.586-0.16 1.078-0.399 1.481-0.719 0.183-0.187 0.547-0.586 1.078-1.199 0.562-0.641 0.855-0.988 0.883-1.039 0.211-0.348 0.332-0.774 0.359-1.281 0-0.989-0.055-1.614-0.16-1.879-0.082-0.297-0.254-0.68-0.52-1.16-0.16-0.243-0.336-0.508-0.519-0.801-0.559-1.254-0.922-1.988-1.082-2.199-0.586-0.829-1.508-1.348-2.758-1.563h-0.121c-0.106-0.023-0.227-0.039-0.36-0.039-0.132-0.027-0.253-0.039-0.359-0.039-0.961-0.055-2.066 0.027-3.32 0.238-0.133 0.028-0.281 0.055-0.442 0.082-0.183 0.024-0.347 0.067-0.48 0.117-0.211 0.055-0.387 0.122-0.52 0.204-0.05 0.023-0.144 0.089-0.277 0.199-0.16 0.133-0.363 0.293-0.602 0.48-0.187 0.133-0.398 0.25-0.64 0.36-0.242 0.105-0.492 0.187-0.758 0.238-0.187 0.055-0.387 0.094-0.602 0.121-0.105 0.027-0.226 0.039-0.359 0.039-0.109 0.027-0.203 0.043-0.281 0.043-0.777 0-1.535-0.121-2.281-0.363-0.536-0.16-1.055-0.371-1.563-0.637-0.156-0.082-0.465-0.309-0.918-0.684-0.055-0.027-0.105-0.066-0.16-0.117-0.055-0.054-0.121-0.109-0.199-0.16-0.508-0.402-0.961-0.641-1.36-0.719-0.8-0.136-1.32 0.067-1.562 0.598-0.024 0.055-0.051 0.121-0.078 0.199 0.48 0.16 1 0.336 1.558 0.52 0.668 0.16 1.133 0.363 1.403 0.601 0.265 0.266 0.437 0.707 0.519 1.321 0.024 0.347-0.043 0.734-0.203 1.16-0.211 0.453-0.371 0.801-0.476 1.039l0.437 0.441c-0.16 0.266-0.277 0.465-0.359 0.598-0.133 0.242-0.215 0.48-0.239 0.723-0.027 0.425 0.067 0.851 0.278 1.277 0.082 0.137 0.336 0.496 0.761 1.082 0.879 1.121 1.946 1.961 3.2 2.519 1.308 0.586 2.629 0.774 3.961 0.559 0.05-0.32 0.066-0.586 0.039-0.801l1.519 0.602z" inkscape:connector-curvature="0"/>
          </g>
        </g>
      </g>
      <g id="g206">
        <g id="g208">
          <g id="g214">
            <path id="path222" style="fill-rule:evenodd;fill:url(#linearGradient216)" d="m18.359 29.363c-0.691 0.187-1.32 0.297-1.879 0.32 0.215 0.32 0.415 0.586 0.598 0.801l-1.797 2.199c-0.187 0.402-0.375 0.75-0.562 1.043 0.16 0.824 0.574 1.477 1.242 1.957 0.746 0.535 1.227 0.922 1.437 1.16 0.297 0.293 0.59 0.774 0.883 1.442 0.106 0.265 0.321 0.64 0.641 1.121 0.371 0.531 0.613 0.906 0.719 1.117 0.453 0.855 0.945 1.48 1.48 1.883 0.238 0.211 0.504 0.371 0.801 0.476 0.211 0.082 0.547 0.094 1 0.043 0.476-0.054 0.797-0.066 0.957-0.043 0.027 0 0.746 0.149 2.16 0.442 0.856 0.16 1.602 0.215 2.242 0.16 0.426-0.055 1.574-0.188 3.438-0.399 1.656-0.32 2.508-0.855 2.562-1.601l0.321-0.32 3.277-3.481c-0.051-0.266 0.016-0.641 0.199-1.117 0.137-0.242 0.309-0.602 0.524-1.082 0.105-0.238 0.265-0.586 0.476-1.039 0.16-0.426 0.227-0.813 0.203-1.16-0.082-0.614-0.254-1.055-0.519-1.321-0.27-0.238-0.735-0.441-1.403-0.601-0.558-0.184-1.078-0.36-1.558-0.52-0.906-0.265-1.613-0.437-2.121-0.519-0.825 0.054-1.426 0.039-1.801-0.039h-0.078c-0.879-0.188-1.508-0.309-1.879-0.36-0.695-0.082-1.348-0.082-1.961 0-0.563 0.078-1.359 0.399-2.402 0.957-0.133 0.082-0.266 0.149-0.399 0.203-0.828 0.454-1.492 0.719-2 0.797-0.719 0.133-1.387 0.082-2-0.156-0.695-0.293-1.281-0.695-1.762-1.203l-0.558-0.84c-0.16-0.133-0.32-0.238-0.481-0.32z" inkscape:connector-curvature="0"/>
          </g>
        </g>
      </g>
      <g id="g224">
        <g id="g226">
          <g id="g232">
            <path id="path240" style="fill-rule:evenodd;fill:url(#linearGradient234)" d="m43.359 25.406c-0.078-0.082-0.16-0.16-0.238-0.242-0.48-0.665-0.695-1.493-0.641-2.481 0-0.453 0.051-0.746 0.161-0.879 0.105-0.133 0.386-0.226 0.839-0.281-0.214-0.481-0.558-0.918-1.039-1.32-0.347-0.239-0.761-0.465-1.242-0.68-0.211-0.078-0.414-0.172-0.597-0.281-0.055 0-0.094-0.012-0.122-0.039-0.054-0.028-0.105-0.055-0.16-0.082-0.293-0.079-0.558-0.172-0.8-0.278-0.051 0-0.106-0.015-0.161-0.043-0.347-0.105-0.652-0.183-0.918-0.238-0.16-0.027-0.308-0.055-0.441-0.082-0.055 0-0.105-0.012-0.16-0.039-0.774-0.078-1.492 0-2.16 0.242-0.321 0.106-0.614 0.25-0.879 0.438-0.375 0.293-0.629 0.468-0.762 0.519-0.211 0.109-0.531 0.094-0.961-0.039-0.211-0.082-0.426-0.172-0.637-0.281l-0.043-0.035c-0.238-0.082-0.476-0.215-0.718-0.403-1.012 0.133-1.852 0.188-2.52 0.16-1.254-0.027-1.879-0.316-1.879-0.878v-0.082l1.879-0.958c-0.055-0.027-0.094-0.054-0.121-0.082-0.641 0.133-1.25 0.215-1.84 0.243-0.48 0.023-0.933 0.011-1.359-0.043-0.051 0.429-0.039 1.082 0.039 1.961 0.16 1.254 0.695 2.468 1.601 3.64 0.079 0.082 0.172 0.149 0.282 0.199 0.105 0.028 0.183 0.122 0.238 0.282 0.16 0.347 0.238 0.89 0.238 1.64v0.16c0.028 0.719 0.11 1.239 0.242 1.559 0.532 1.387 1.532 2.281 3 2.68 0.774 0.215 2.172 0.32 4.2 0.32l1.519-1.121 0.082-0.078c1.145-0.027 2.172-0.227 3.078-0.602 1.067-0.425 1.973-1.105 2.719-2.039 0.11-0.133 0.203-0.277 0.281-0.437z" inkscape:connector-curvature="0"/>
          </g>
        </g>
      </g>
      <g id="g242">
        <g id="g244">
          <g id="g250">
            <path id="path258" style="fill-rule:evenodd;fill:url(#linearGradient252)" d="m14.719 33.726c0.187-0.293 0.375-0.641 0.562-1.043l1.797-2.199c-0.183-0.215-0.383-0.481-0.598-0.801-0.105 0.027-0.187 0.043-0.242 0.043-1.226 0.051-2.133-0.16-2.718-0.641-0.215-0.16-0.415-0.375-0.598-0.64-0.188 0.105-0.375 0.215-0.563 0.32-0.613 0.399-1.16 0.586-1.64 0.559-0.024 0-0.051-0.016-0.078-0.039-0.668-0.11-1.149-0.161-1.442-0.161-0.504 0.024-0.906 0.321-1.199 0.879-0.133 0.321-0.172 1.012-0.121 2.082 0 1.25 0.16 2.184 0.48 2.797 0.426 0.828 1.188 1.227 2.282 1.203 1.171 0 2.121-0.293 2.839-0.882 0.426-0.344 0.84-0.84 1.239-1.477z" inkscape:connector-curvature="0"/>
          </g>
        </g>
      </g>
      <g id="g260">
        <g id="g262">
          <g id="g268">
            <path id="path276" style="fill-rule:evenodd;fill:url(#linearGradient270)" d="m10.68 20.882h-0.36c-0.398-0.05-0.761-0.039-1.082 0.043-0.133 0.133-0.211 0.321-0.238 0.559-0.027 0.242 0 0.519 0.078 0.84 0.297 0.718 0.481 1.187 0.563 1.402 0.078 0.184 0.171 0.371 0.281 0.559 0.156 0.293 0.359 0.586 0.598 0.879 0.453 0.562 0.8 1.015 1.039 1.359 0.402 0.586 0.707 1.027 0.921 1.32 0.133 0.215 0.282 0.414 0.442 0.602 0.183 0.265 0.383 0.48 0.598 0.64 0.585 0.481 1.492 0.692 2.718 0.641 0.055 0 0.137-0.016 0.242-0.043 0.559-0.023 1.188-0.133 1.879-0.32h0.082c0.454-0.106 1.094-0.317 1.918-0.637 0.852-0.348 1.496-0.562 1.922-0.641l0.278-0.121 1.242-0.519 1.277-0.481 0.32-0.16 1.883-0.719c0-0.402-0.027-0.789-0.082-1.16-0.054-0.535-0.16-1-0.32-1.402-0.211-0.531-0.547-1.066-1-1.598-0.16-0.187-0.348-0.375-0.559-0.562-1.281-1.227-2.453-2.039-3.519-2.438-0.481-0.16-0.934-0.242-1.36-0.242-0.828 0-1.347 0.066-1.562 0.199-0.211 0.11-0.492 0.336-0.84 0.684-0.344 0.344-0.641 0.586-0.879 0.719-0.855 0.425-1.988 0.64-3.398 0.64l-3.082-0.043z" inkscape:connector-curvature="0"/>
          </g>
        </g>
      </g>
      <g id="g278">
        <g id="g280">
          <g id="g286">
            <path id="path294" style="fill-rule:evenodd;fill:url(#linearGradient288)" d="m25.84 17.246c0.426 0.05 0.879 0.066 1.359 0.039 0.586-0.028 1.199-0.11 1.84-0.243 0.215-0.05 0.43-0.105 0.641-0.16l-0.52 0.242-1.879 0.961v0.079c0 0.562 0.625 0.851 1.879 0.882 0.668 0.024 1.508-0.027 2.52-0.16h0.199c0.133 0 0.281-0.015 0.441-0.043 0.133 0.028 0.282 0.028 0.442 0 0.851-0.078 1.664-0.265 2.437-0.558 0.375-0.133 0.746-0.309 1.121-0.52 0.348-0.187 0.774-0.48 1.282-0.879 0.023-0.027 0.066-0.07 0.117-0.121 0.109-0.055 0.203-0.121 0.281-0.199 0.215-0.16 0.414-0.32 0.602-0.481 0.425-0.293 0.757-0.519 1-0.679 0.238-0.133 0.878-0.36 1.918-0.68 0.132-0.027 0.281-0.066 0.441-0.121 1.012-0.266 1.707-0.652 2.078-1.16 0.027 0 0.039-0.012 0.039-0.039 0.242-0.293 0.375-0.696 0.402-1.203 0.055-0.532-0.015-0.957-0.199-1.278-0.054-0.082-0.121-0.16-0.203-0.242-0.289-0.238-0.719-0.293-1.277-0.16-0.16 0.055-0.321 0.109-0.481 0.16-0.961 0.348-1.492 0.535-1.601 0.563-0.559 0.105-1.133 0.066-1.719-0.122-0.348-0.109-0.785-0.375-1.32-0.8-0.481-0.375-0.918-0.586-1.321-0.641-0.828-0.078-1.453 0-1.879 0.242-0.16 0.106-0.292 0.211-0.402 0.321-0.156 0.183-0.293 0.453-0.398 0.796-0.133 0.43-0.266 0.707-0.399 0.84-0.347 0.375-0.801 0.52-1.359 0.442-0.375-0.133-0.695-0.227-0.961-0.282-0.215-0.05-0.387-0.093-0.52-0.117-0.109-0.027-0.214-0.043-0.32-0.043-0.375-0.023-0.734 0.028-1.082 0.16-0.48 0.27-0.894 0.469-1.238 0.602h-0.039c-0.055 0.027-0.11 0.039-0.16 0.039-0.375 0.109-0.79 0.094-1.243-0.039-0.398-0.16-0.734-0.293-1-0.398-0.132-0.055-0.254-0.094-0.359-0.122-0.695-0.214-1.586-0.347-2.68-0.398h-0.082c-0.746-0.027-1.316 0.023-1.718 0.156-0.293 0.082-0.508 0.215-0.641 0.403-0.16 0.265-0.133 0.613 0.082 1.039 0 0.027 0.012 0.054 0.039 0.082 0.105 0.16 0.305 0.437 0.602 0.84 0.238 0.347 0.503 0.652 0.796 0.918l0.043 0.039c0.907 0.882 1.985 1.496 3.239 1.843h0.082c0.343 0.106 0.703 0.172 1.078 0.2z" inkscape:connector-curvature="0"/>
          </g>
        </g>
      </g>
      <g id="g296">
        <g id="g298">
          <g id="g304">
            <path id="path312" style="fill-rule:evenodd;fill:url(#linearGradient306)" d="m3.68 18.925c-0.133 0.051-0.282 0.106-0.442 0.16-0.691 0.161-1.199 0.278-1.519 0.36-0.586 0.16-1.024 0.426-1.321 0.801-0.238 0.343-0.371 0.785-0.398 1.32 0 0.531 0.105 0.973 0.32 1.316 0.188 0.348 0.442 0.551 0.758 0.602 0.16 0.027 0.524 0.015 1.082-0.039 0.215-0.028 0.906-0.199 2.078-0.52 0.055 0 0.442-0.054 1.16-0.16 0.43-0.055 0.801-0.148 1.122-0.281 0.132-0.051 0.64-0.414 1.519-1.082 0.027-0.024 0.066-0.051 0.121-0.078v-0.039c0.641-0.426 1.145-0.629 1.52-0.602l1.039-0.441 1.281-0.559 0.281-0.121 4-1.68v-1.238c0-0.453-0.015-0.707-0.043-0.762-0.078-0.347-0.238-0.64-0.476-0.879-0.242-0.16-0.524-0.281-0.84-0.359-0.91-0.242-1.817-0.387-2.723-0.441-1.039-0.055-2.078 0.027-3.121 0.242-0.933 0.183-1.785 0.652-2.558 1.398l-0.2 0.242-1.761 2c-0.266 0.348-0.454 0.559-0.559 0.641-0.078 0.078-0.188 0.145-0.32 0.199z" inkscape:connector-curvature="0"/>
          </g>
        </g>
      </g>
    </g>
  </g>
<metadata><rdf:RDF><cc:Work><dc:format>image/svg+xml</dc:format><dc:type rdf:resource="http://purl.org/dc/dcmitype/StillImage"/><cc:license rdf:resource="http://creativecommons.org/licenses/publicdomain/"/><dc:publisher><cc:Agent rdf:about="http://openclipart.org/"><dc:title>Openclipart</dc:title></cc:Agent></dc:publisher></cc:Work><cc:License rdf:about="http://creativecommons.org/licenses/publicdomain/"><cc:permits rdf:resource="http://creativecommons.org/ns#Reproduction"/><cc:permits rdf:resource="http://creativecommons.org/ns#Distribution"/><cc:permits rdf:resource="http://creativecommons.org/ns#DerivativeWorks"/></cc:License></rdf:RDF></metadata></svg>
